<?xml version="1.0" encoding="UTF-8"?>
<svg id="Layer_1" xmlns="http://www.w3.org/2000/svg" version="1.1" viewBox="0 0 2000 2000">
  <!-- Generator: Adobe Illustrator 30.3.0, SVG Export Plug-In . SVG Version: 2.1.3 Build 182)  -->
  <defs>
    <style>
      .st0 {
        fill: #fff;
      }
    </style>
  </defs>
  <g>
    <g>
      <path class="st0" d="M1063.1,999.3v40.3l-110,3.8c24.6-15.8,59.8-31.8,110-44.1Z"/>
      <g>
        <path d="M216.9,1310.4c0,6.9-5.6,12.7-12.5,13-6.9.2-12.5-5.2-12.5-12.1s5.6-12.7,12.5-13c6.9-.2,12.5,5.2,12.5,12.1Z"/>
        <path d="M362.6,1242.2c0,27.3-18.5,49.9-58.4,51.3-31.7,1.1-54.1-14.3-60.9-41.2l33.3-14.9c2.5,11.2,11.7,25.5,31.9,24.8,13.6-.5,19.7-6.6,19.7-14.5,0-27.8-79.7-2.1-79.7-58.7s19.7-46.3,55.7-47.6c28.8-1,47.5,11.7,56.3,37.3l-31.9,12.6c-3.5-12.2-11.5-20.4-27.1-19.8-10.5.4-18.5,4.6-18.5,12.3,0,23,79.5,2,79.5,58.3Z"/>
        <polygon points="488.3 1137.1 488.3 1169 448.6 1170.4 448.6 1286.5 412.9 1287.7 412.9 1171.6 373 1173 373 1141.2 488.3 1137.1"/>
        <path d="M625.6,1280.3l-33.5,1.2c-3.5-2.5-5.4-7.6-6.2-11.5l-6.1-28.1c-1.9-9-7.6-11.3-15.2-11l-24,.8v51.6l-35.8,1.2v-148l72.3-2.5c23.6-.8,37.8,17.2,37.8,39.6s-10.5,32.2-26.3,38.1c12.5.8,19.7,6.3,21.6,15.3l7.2,34.3c1.4,6.7,4.3,14.8,8.2,19Z"/>
        <polygon points="748.4 1244.2 748.4 1276 639.3 1279.8 639.3 1131.9 746.4 1128.1 746.4 1160 675.1 1162.5 675.1 1188.8 743.9 1186.4 743.9 1218.2 675.1 1220.6 675.1 1246.7 748.4 1244.2"/>
        <polygon points="872.3 1239.8 872.3 1271.7 763.2 1275.5 763.2 1127.5 870.3 1123.8 870.3 1155.7 799 1158.2 799 1184.4 867.8 1182 867.8 1213.9 799 1216.3 799 1242.4 872.3 1239.8"/>
        <polygon points="1242.2 1110.8 1242.2 1258.8 1206.4 1260 1206.4 1112.1 1242.2 1110.8"/>
        <polygon points="1370.8 1222.4 1370.8 1254.3 1261.7 1258.1 1261.7 1110.1 1368.8 1106.4 1368.8 1138.3 1297.5 1140.7 1297.5 1167 1366.3 1164.6 1366.3 1196.5 1297.5 1198.9 1297.5 1225 1370.8 1222.4"/>
        <polygon points="1609.6 1097.8 1559.7 1247.7 1520.8 1249 1494.5 1155.4 1468.4 1250.9 1429.4 1252.2 1379.6 1105.8 1418.1 1104.4 1448.5 1210.1 1475.6 1102.4 1513.6 1101.1 1540.5 1206.8 1571.2 1099.1 1609.6 1097.8"/>
        <path d="M1733.1,1194.4c0,27.3-18.5,49.9-58.4,51.3-31.7,1.1-54.1-14.3-60.8-41.2l33.3-14.9c2.5,11.2,11.7,25.5,31.9,24.8,13.6-.5,19.7-6.6,19.7-14.5,0-27.8-79.7-2.1-79.7-58.7s19.7-46.3,55.7-47.6c28.8-1,47.5,11.7,56.3,37.3l-31.9,12.6c-3.5-12.2-11.5-20.4-27.1-19.8-10.5.4-18.5,4.6-18.5,12.3,0,23,79.5,2,79.5,58.3Z"/>
        <path d="M1785.4,1255.7c0,6.9-5.6,12.7-12.5,13-6.9.2-12.5-5.2-12.5-12.1s5.6-12.7,12.5-13c6.9-.2,12.5,5.2,12.5,12.1Z"/>
      </g>
      <g>
        <path class="st0" d="M216.9,1310.4c0,6.9-5.6,12.7-12.5,13-6.9.2-12.5-5.2-12.5-12.1s5.6-12.7,12.5-13c6.9-.2,12.5,5.2,12.5,12.1Z"/>
        <path class="st0" d="M362.6,1242.2c0,27.3-18.5,49.9-58.4,51.3-31.7,1.1-54.1-14.3-60.9-41.2l33.3-14.9c2.5,11.2,11.7,25.5,31.9,24.8,13.6-.5,19.7-6.6,19.7-14.5,0-27.8-79.7-2.1-79.7-58.7s19.7-46.3,55.7-47.6c28.8-1,47.5,11.7,56.3,37.3l-31.9,12.6c-3.5-12.2-11.5-20.4-27.1-19.8-10.5.4-18.5,4.6-18.5,12.3,0,23,79.5,2,79.5,58.3Z"/>
        <polygon class="st0" points="488.3 1137.1 488.3 1169 448.6 1170.4 448.6 1286.5 412.9 1287.7 412.9 1171.6 373 1173 373 1141.2 488.3 1137.1"/>
        <path class="st0" d="M625.6,1280.3l-33.5,1.2c-3.5-2.5-5.4-7.6-6.2-11.5l-6.1-28.1c-1.9-9-7.6-11.3-15.2-11l-24,.8v51.6l-35.8,1.2v-148l72.3-2.5c23.6-.8,37.8,17.2,37.8,39.6s-10.5,32.2-26.3,38.1c12.5.8,19.7,6.3,21.6,15.3l7.2,34.3c1.4,6.7,4.3,14.8,8.2,19Z"/>
        <polygon class="st0" points="748.4 1244.2 748.4 1276 639.3 1279.8 639.3 1131.9 746.4 1128.1 746.4 1160 675.1 1162.5 675.1 1188.8 743.9 1186.4 743.9 1218.2 675.1 1220.6 675.1 1246.7 748.4 1244.2"/>
        <polygon class="st0" points="872.3 1239.8 872.3 1271.7 763.2 1275.5 763.2 1127.5 870.3 1123.8 870.3 1155.7 799 1158.2 799 1184.4 867.8 1182 867.8 1213.9 799 1216.3 799 1242.4 872.3 1239.8"/>
        <polygon class="st0" points="1242.2 1110.8 1242.2 1258.8 1206.4 1260 1206.4 1112.1 1242.2 1110.8"/>
        <polygon class="st0" points="1370.8 1222.4 1370.8 1254.3 1261.7 1258.1 1261.7 1110.1 1368.8 1106.4 1368.8 1138.3 1297.5 1140.7 1297.5 1167 1366.3 1164.6 1366.3 1196.5 1297.5 1198.9 1297.5 1225 1370.8 1222.4"/>
        <polygon class="st0" points="1609.6 1097.8 1559.7 1247.7 1520.8 1249 1494.5 1155.4 1468.4 1250.9 1429.4 1252.2 1379.6 1105.8 1418.1 1104.4 1448.5 1210.1 1475.6 1102.4 1513.6 1101.1 1540.5 1206.8 1571.2 1099.1 1609.6 1097.8"/>
        <path class="st0" d="M1733.1,1194.4c0,27.3-18.5,49.9-58.4,51.3-31.7,1.1-54.1-14.3-60.8-41.2l33.3-14.9c2.5,11.2,11.7,25.5,31.9,24.8,13.6-.5,19.7-6.6,19.7-14.5,0-27.8-79.7-2.1-79.7-58.7s19.7-46.3,55.7-47.6c28.8-1,47.5,11.7,56.3,37.3l-31.9,12.6c-3.5-12.2-11.5-20.4-27.1-19.8-10.5.4-18.5,4.6-18.5,12.3,0,23,79.5,2,79.5,58.3Z"/>
        <path class="st0" d="M1785.4,1255.7c0,6.9-5.6,12.7-12.5,13-6.9.2-12.5-5.2-12.5-12.1s5.6-12.7,12.5-13c6.9-.2,12.5,5.2,12.5,12.1Z"/>
      </g>
      <g>
        <path d="M283,1184c0-7.8,8-12,18.5-12.3,15.6-.5,23.6,7.6,27.1,19.8l31.9-12.6c-8.8-25.6-27.5-38.3-56.3-37.3-36,1.3-55.7,19.2-55.7,47.6,0,56.5,79.7,30.9,79.7,58.7s-6.2,14-19.7,14.5c-20.1.7-29.4-13.6-31.9-24.8l-33.3,14.9c6.8,26.9,29.2,42.3,60.9,41.2,39.8-1.4,58.4-24,58.4-51.3,0-56.3-79.5-35.3-79.5-58.3Z"/>
        <path d="M373,1141.2v31.9l39.9-1.4v116.1l35.8-1.2v-116.1l39.7-1.4v-31.9l-115.3,4Z"/>
        <path d="M617.3,1261.3l-7.2-34.3c-1.9-9-9.1-14.5-21.6-15.3,15.8-5.9,26.3-17.8,26.3-38.1s-14.2-40.4-37.8-39.6l-72.3,2.5v148l35.8-1.2v-51.6l24-.8c7.6-.3,13.3,2,15.2,11l6.1,28.1c.8,3.9,2.7,9,6.2,11.5l33.5-1.2c-3.9-4.2-6.8-12.3-8.2-19ZM563.3,1199.3l-22.8.8v-36.6l21-.7c13.1-.5,21.6,4.4,21.6,18.2s-7.4,17.9-19.7,18.4Z"/>
        <path d="M675.1,1246.7v-26.1l68.8-2.4v-31.9l-68.8,2.4v-26.3l71.3-2.5v-31.9l-107.1,3.7v148l109.1-3.8v-31.9l-73.3,2.6Z"/>
        <path d="M799,1242.4v-26.1l68.8-2.4v-31.9l-68.8,2.4v-26.3l71.3-2.5v-31.9l-107.1,3.7v148l109.1-3.8v-31.9l-73.4,2.6Z"/>
        <path d="M1206.4,1112.1v148l35.8-1.2v-148l-35.8,1.2Z"/>
        <path d="M1297.5,1225v-26.1l68.8-2.4v-31.9l-68.8,2.4v-26.3l71.3-2.5v-31.9l-107.1,3.7v148l109.1-3.8v-31.9l-73.3,2.6Z"/>
        <path d="M1571.2,1099.1l-30.6,107.7-26.9-105.7-38,1.3-27.1,107.6-30.4-105.6-38.4,1.3,49.7,146.4,39.1-1.4,26.1-95.4,26.3,93.6,38.8-1.4,50-149.9-38.4,1.3Z"/>
        <path d="M1653.6,1136.1c0-7.8,8-12,18.5-12.3,15.6-.5,23.6,7.6,27.1,19.8l31.9-12.6c-8.8-25.6-27.5-38.3-56.3-37.3-36,1.3-55.7,19.2-55.7,47.6,0,56.5,79.7,30.9,79.7,58.7s-6.2,14-19.7,14.5c-20.1.7-29.4-13.6-31.9-24.8l-33.3,14.9c6.8,26.9,29.2,42.3,60.8,41.2,39.9-1.4,58.4-24,58.4-51.3,0-56.3-79.5-35.3-79.5-58.3Z"/>
      </g>
      <path d="M216.9,1310.4c0,6.9-5.6,12.7-12.5,13-6.9.2-12.5-5.2-12.5-12.1s5.6-12.7,12.5-13c6.9-.2,12.5,5.2,12.5,12.1Z"/>
      <path d="M1785.4,1255.7c0,6.9-5.6,12.7-12.5,13-6.9.2-12.5-5.2-12.5-12.1s5.6-12.7,12.5-13c6.9-.2,12.5,5.2,12.5,12.1Z"/>
      <path d="M1094,758.3c1.9-13.1,2.7-25.7.8-37.9-5.6-37.8-31.8-66.6-58.6-91.7,55,8.5,98.3,81.3,57.8,129.6Z"/>
      <path class="st0" d="M1094,758.3c1.9-13.1,2.7-25.7.8-37.9-5.6-37.8-31.8-66.6-58.6-91.7,55,8.5,98.3,81.3,57.8,129.6Z"/>
    </g>
    <g>
      <path class="st0" d="M1063.1,999.3v40.3l-110,3.8c24.6-15.8,59.8-31.8,110-44.1Z"/>
      <g>
        <path d="M216.9,1310.4c0,6.9-5.6,12.7-12.5,13-6.9.2-12.5-5.2-12.5-12.1s5.6-12.7,12.5-13c6.9-.2,12.5,5.2,12.5,12.1Z"/>
        <path d="M362.6,1242.2c0,27.3-18.5,49.9-58.4,51.3-31.7,1.1-54.1-14.3-60.9-41.2l33.3-14.9c2.5,11.2,11.7,25.5,31.9,24.8,13.6-.5,19.7-6.6,19.7-14.5,0-27.8-79.7-2.1-79.7-58.7s19.7-46.3,55.7-47.6c28.8-1,47.5,11.7,56.3,37.3l-31.9,12.6c-3.5-12.2-11.5-20.4-27.1-19.8-10.5.4-18.5,4.6-18.5,12.3,0,23,79.5,2,79.5,58.3Z"/>
        <polygon points="488.3 1137.1 488.3 1169 448.6 1170.4 448.6 1286.5 412.9 1287.7 412.9 1171.6 373 1173 373 1141.2 488.3 1137.1"/>
        <path d="M625.6,1280.3l-33.5,1.2c-3.5-2.5-5.4-7.6-6.2-11.5l-6.1-28.1c-1.9-9-7.6-11.3-15.2-11l-24,.8v51.6l-35.8,1.2v-148l72.3-2.5c23.6-.8,37.8,17.2,37.8,39.6s-10.5,32.2-26.3,38.1c12.5.8,19.7,6.3,21.6,15.3l7.2,34.3c1.4,6.7,4.3,14.8,8.2,19Z"/>
        <polygon points="748.4 1244.2 748.4 1276 639.3 1279.8 639.3 1131.9 746.4 1128.1 746.4 1160 675.1 1162.5 675.1 1188.8 743.9 1186.4 743.9 1218.2 675.1 1220.6 675.1 1246.7 748.4 1244.2"/>
        <polygon points="872.3 1239.8 872.3 1271.7 763.2 1275.5 763.2 1127.5 870.3 1123.8 870.3 1155.7 799 1158.2 799 1184.4 867.8 1182 867.8 1213.9 799 1216.3 799 1242.4 872.3 1239.8"/>
        <polygon points="1242.2 1110.8 1242.2 1258.8 1206.4 1260 1206.4 1112.1 1242.2 1110.8"/>
        <polygon points="1370.8 1222.4 1370.8 1254.3 1261.7 1258.1 1261.7 1110.1 1368.8 1106.4 1368.8 1138.3 1297.5 1140.7 1297.5 1167 1366.3 1164.6 1366.3 1196.5 1297.5 1198.9 1297.5 1225 1370.8 1222.4"/>
        <polygon points="1609.6 1097.8 1559.7 1247.7 1520.8 1249 1494.5 1155.4 1468.4 1250.9 1429.4 1252.2 1379.6 1105.8 1418.1 1104.4 1448.5 1210.1 1475.6 1102.4 1513.6 1101.1 1540.5 1206.8 1571.2 1099.1 1609.6 1097.8"/>
        <path d="M1733.1,1194.4c0,27.3-18.5,49.9-58.4,51.3-31.7,1.1-54.1-14.3-60.8-41.2l33.3-14.9c2.5,11.2,11.7,25.5,31.9,24.8,13.6-.5,19.7-6.6,19.7-14.5,0-27.8-79.7-2.1-79.7-58.7s19.7-46.3,55.7-47.6c28.8-1,47.5,11.7,56.3,37.3l-31.9,12.6c-3.5-12.2-11.5-20.4-27.1-19.8-10.5.4-18.5,4.6-18.5,12.3,0,23,79.5,2,79.5,58.3Z"/>
        <path d="M1785.4,1255.7c0,6.9-5.6,12.7-12.5,13-6.9.2-12.5-5.2-12.5-12.1s5.6-12.7,12.5-13c6.9-.2,12.5,5.2,12.5,12.1Z"/>
      </g>
      <g>
        <path class="st0" d="M1816.5,1078.5c-.1-3.9-.8-7.7-1.8-11.3-5.7-19.6-24-33.4-45.7-32.6l-1561.6,54.5c-26.2.9-47.6,23-47.6,49.2v168.4c0,6.6,1.4,12.9,3.8,18.6,2.4,5.4,5.7,10.2,9.9,14.3,2.9,2.9,6.2,5.4,9.9,7.3,7.1,3.9,15.3,6,24,5.7l1561.6-54.5c26.2-.9,47.6-23,47.6-49.2v-168.4c0-.7,0-1.3,0-2ZM204.4,1323.4c-6.9.3-12.5-5.2-12.5-12.1s5.6-12.7,12.5-13c6.9-.2,12.5,5.2,12.5,12.1s-5.6,12.7-12.5,13ZM216.9,1130.9c0,6.9-5.7,12.6-12.5,12.8-2.9.1-5.6-.8-7.8-2.4-2.6-2-4.4-5-4.7-8.5,0-.4,0-.8,0-1.1,0-6.9,5.6-12.7,12.5-13,3.4,0,6.5,1.1,8.7,3.3,2.4,2.2,3.8,5.4,3.8,8.9v.2ZM304.2,1293.6c-31.7,1.1-54.1-14.3-60.9-41.2l33.3-14.9c2.5,11.2,11.7,25.5,31.9,24.8,13.6-.5,19.7-6.6,19.7-14.5,0-27.8-79.7-2.1-79.7-58.7s19.7-46.3,55.7-47.6c28.8-1,47.5,11.7,56.3,37.3l-31.9,12.6c-3.5-12.2-11.5-20.3-27.1-19.8-10.5.4-18.5,4.6-18.5,12.3,0,23,79.5,1.9,79.5,58.3s-18.5,50-58.4,51.3ZM488.3,1169l-39.7,1.4v116.1l-35.8,1.2v-116.1l-39.9,1.4v-31.9l115.3-4v31.9ZM592,1281.5c-3.5-2.5-5.4-7.6-6.2-11.5l-6.1-28.1c-1.9-9-7.6-11.3-15.2-11l-24,.8v51.6l-35.8,1.2v-148l72.3-2.5c23.6-.8,37.8,17.2,37.8,39.6s-10.5,32.2-26.3,38.1c12.5.8,19.7,6.3,21.6,15.3l7.2,34.3c1.4,6.7,4.3,14.8,8.2,19l-33.5,1.1ZM748.4,1276l-109.1,3.8v-148l107.1-3.7v31.9l-71.3,2.5v26.3l68.8-2.4v31.9l-68.8,2.4v26.1l73.3-2.6v31.9ZM872.3,1271.7l-109.1,3.8v-148l107.1-3.7v31.9l-71.3,2.5v26.3l68.8-2.4v31.9l-68.8,2.4v26.1l73.4-2.6v31.9ZM999.5,1151.2l-39.7,1.4v116.1l-35.7,1.2v-116.1l-39.9,1.4v-31.9l115.3-4v31.9ZM1143.3,1262.2l-42.5,1.5-18-52.9-19.7-58-12.1-35.5,38.4-1.3,32.9,113.9,32.9-116.2,38-1.3-50,149.9ZM1242.2,1258.8l-35.8,1.2v-148l35.8-1.2v148ZM1370.8,1254.3l-109.1,3.8v-148l107.1-3.7v31.9l-71.3,2.5v26.3l68.8-2.4v31.9l-68.8,2.4v26.1l73.3-2.6v31.9ZM1559.7,1247.7l-38.8,1.4-26.3-93.6-26.1,95.4-39.1,1.4-49.7-146.4,38.4-1.3,30.4,105.6,27.1-107.6,38-1.3,26.9,105.8,30.6-107.8,38.4-1.3-50,149.9ZM1674.7,1245.7c-31.7,1.1-54.1-14.3-60.8-41.2l33.3-14.9c2.5,11.2,11.7,25.5,31.9,24.8,13.6-.5,19.7-6.6,19.7-14.4,0-27.8-79.7-2.2-79.7-58.7s19.7-46.3,55.7-47.6c28.8-1,47.5,11.7,56.3,37.3l-31.9,12.6c-3.5-12.2-11.5-20.4-27.1-19.8-10.5.4-18.5,4.6-18.5,12.3,0,23,79.5,1.9,79.5,58.3s-18.5,50-58.4,51.3ZM1772.9,1268.7c-6.9.2-12.5-5.2-12.5-12.1s5.6-12.7,12.5-13c6.9-.3,12.5,5.2,12.5,12.1s-5.6,12.7-12.5,13ZM1782.3,1084.4c-2.3,2.7-5.7,4.5-9.4,4.6-3.7.1-7.1-1.4-9.4-3.9-1.9-2.1-3.1-5-3.1-8.2s0-1.1,0-1.5c.5-4.4,3.4-8.2,7.2-10.1,1.6-.8,3.4-1.2,5.2-1.3,1.9,0,3.6.3,5.2,1,3.9,1.6,6.7,5.2,7.2,9.6,0,.5,0,1,0,1.5,0,3.2-1.2,6.2-3.1,8.4Z"/>
        <path class="st0" d="M216.9,1310.4c0,6.9-5.6,12.7-12.5,13-6.9.2-12.5-5.2-12.5-12.1s5.6-12.7,12.5-13c6.9-.2,12.5,5.2,12.5,12.1Z"/>
        <path class="st0" d="M362.6,1242.2c0,27.3-18.5,49.9-58.4,51.3-31.7,1.1-54.1-14.3-60.9-41.2l33.3-14.9c2.5,11.2,11.7,25.5,31.9,24.8,13.6-.5,19.7-6.6,19.7-14.5,0-27.8-79.7-2.1-79.7-58.7s19.7-46.3,55.7-47.6c28.8-1,47.5,11.7,56.3,37.3l-31.9,12.6c-3.5-12.2-11.5-20.4-27.1-19.8-10.5.4-18.5,4.6-18.5,12.3,0,23,79.5,2,79.5,58.3Z"/>
        <polygon class="st0" points="488.3 1137.1 488.3 1169 448.6 1170.4 448.6 1286.5 412.9 1287.7 412.9 1171.6 373 1173 373 1141.2 488.3 1137.1"/>
        <path class="st0" d="M625.6,1280.3l-33.5,1.2c-3.5-2.5-5.4-7.6-6.2-11.5l-6.1-28.1c-1.9-9-7.6-11.3-15.2-11l-24,.8v51.6l-35.8,1.2v-148l72.3-2.5c23.6-.8,37.8,17.2,37.8,39.6s-10.5,32.2-26.3,38.1c12.5.8,19.7,6.3,21.6,15.3l7.2,34.3c1.4,6.7,4.3,14.8,8.2,19Z"/>
        <polygon class="st0" points="748.4 1244.2 748.4 1276 639.3 1279.8 639.3 1131.9 746.4 1128.1 746.4 1160 675.1 1162.5 675.1 1188.8 743.9 1186.4 743.9 1218.2 675.1 1220.6 675.1 1246.7 748.4 1244.2"/>
        <polygon class="st0" points="872.3 1239.8 872.3 1271.7 763.2 1275.5 763.2 1127.5 870.3 1123.8 870.3 1155.7 799 1158.2 799 1184.4 867.8 1182 867.8 1213.9 799 1216.3 799 1242.4 872.3 1239.8"/>
        <polygon class="st0" points="1242.2 1110.8 1242.2 1258.8 1206.4 1260 1206.4 1112.1 1242.2 1110.8"/>
        <polygon class="st0" points="1370.8 1222.4 1370.8 1254.3 1261.7 1258.1 1261.7 1110.1 1368.8 1106.4 1368.8 1138.3 1297.5 1140.7 1297.5 1167 1366.3 1164.6 1366.3 1196.5 1297.5 1198.9 1297.5 1225 1370.8 1222.4"/>
        <polygon class="st0" points="1609.6 1097.8 1559.7 1247.7 1520.8 1249 1494.5 1155.4 1468.4 1250.9 1429.4 1252.2 1379.6 1105.8 1418.1 1104.4 1448.5 1210.1 1475.6 1102.4 1513.6 1101.1 1540.5 1206.8 1571.2 1099.1 1609.6 1097.8"/>
        <path class="st0" d="M1733.1,1194.4c0,27.3-18.5,49.9-58.4,51.3-31.7,1.1-54.1-14.3-60.8-41.2l33.3-14.9c2.5,11.2,11.7,25.5,31.9,24.8,13.6-.5,19.7-6.6,19.7-14.5,0-27.8-79.7-2.1-79.7-58.7s19.7-46.3,55.7-47.6c28.8-1,47.5,11.7,56.3,37.3l-31.9,12.6c-3.5-12.2-11.5-20.4-27.1-19.8-10.5.4-18.5,4.6-18.5,12.3,0,23,79.5,2,79.5,58.3Z"/>
        <path class="st0" d="M1785.4,1255.7c0,6.9-5.6,12.7-12.5,13-6.9.2-12.5-5.2-12.5-12.1s5.6-12.7,12.5-13c6.9-.2,12.5,5.2,12.5,12.1Z"/>
      </g>
      <g>
        <path d="M283,1184c0-7.8,8-12,18.5-12.3,15.6-.5,23.6,7.6,27.1,19.8l31.9-12.6c-8.8-25.6-27.5-38.3-56.3-37.3-36,1.3-55.7,19.2-55.7,47.6,0,56.5,79.7,30.9,79.7,58.7s-6.2,14-19.7,14.5c-20.1.7-29.4-13.6-31.9-24.8l-33.3,14.9c6.8,26.9,29.2,42.3,60.9,41.2,39.8-1.4,58.4-24,58.4-51.3,0-56.3-79.5-35.3-79.5-58.3Z"/>
        <path d="M373,1141.2v31.9l39.9-1.4v116.1l35.8-1.2v-116.1l39.7-1.4v-31.9l-115.3,4Z"/>
        <path d="M617.3,1261.3l-7.2-34.3c-1.9-9-9.1-14.5-21.6-15.3,15.8-5.9,26.3-17.8,26.3-38.1s-14.2-40.4-37.8-39.6l-72.3,2.5v148l35.8-1.2v-51.6l24-.8c7.6-.3,13.3,2,15.2,11l6.1,28.1c.8,3.9,2.7,9,6.2,11.5l33.5-1.2c-3.9-4.2-6.8-12.3-8.2-19ZM563.3,1199.3l-22.8.8v-36.6l21-.7c13.1-.5,21.6,4.4,21.6,18.2s-7.4,17.9-19.7,18.4Z"/>
        <path d="M675.1,1246.7v-26.1l68.8-2.4v-31.9l-68.8,2.4v-26.3l71.3-2.5v-31.9l-107.1,3.7v148l109.1-3.8v-31.9l-73.3,2.6Z"/>
        <path d="M799,1242.4v-26.1l68.8-2.4v-31.9l-68.8,2.4v-26.3l71.3-2.5v-31.9l-107.1,3.7v148l109.1-3.8v-31.9l-73.4,2.6Z"/>
        <polygon points="999.5 1119.3 999.5 1151.2 959.9 1152.5 959.9 1268.6 924.1 1269.9 924.1 1153.8 884.3 1155.2 884.3 1123.3 999.5 1119.3"/>
        <polygon points="1193.3 1112.3 1143.3 1262.2 1100.8 1263.7 1082.9 1210.8 1063.1 1152.8 1051.1 1117.3 1089.5 1115.9 1122.4 1229.9 1155.3 1113.6 1193.3 1112.3"/>
        <path d="M1206.4,1112.1v148l35.8-1.2v-148l-35.8,1.2Z"/>
        <path d="M1297.5,1225v-26.1l68.8-2.4v-31.9l-68.8,2.4v-26.3l71.3-2.5v-31.9l-107.1,3.7v148l109.1-3.8v-31.9l-73.3,2.6Z"/>
        <path d="M1571.2,1099.1l-30.6,107.7-26.9-105.7-38,1.3-27.1,107.6-30.4-105.6-38.4,1.3,49.7,146.4,39.1-1.4,26.1-95.4,26.3,93.6,38.8-1.4,50-149.9-38.4,1.3Z"/>
        <path d="M1653.6,1136.1c0-7.8,8-12,18.5-12.3,15.6-.5,23.6,7.6,27.1,19.8l31.9-12.6c-8.8-25.6-27.5-38.3-56.3-37.3-36,1.3-55.7,19.2-55.7,47.6,0,56.5,79.7,30.9,79.7,58.7s-6.2,14-19.7,14.5c-20.1.7-29.4-13.6-31.9-24.8l-33.3,14.9c6.8,26.9,29.2,42.3,60.8,41.2,39.9-1.4,58.4-24,58.4-51.3,0-56.3-79.5-35.3-79.5-58.3Z"/>
      </g>
      <g>
        <path d="M216.9,1130.7v.2c0,6.9-5.7,12.6-12.5,12.8s-5.6-.8-7.8-2.5c-2.6-2-4.4-5-4.7-8.5,0-.4,0-.8,0-1.1,0-6.9,5.6-12.7,12.5-13,3.4-.1,6.5,1.1,8.7,3.2,2.4,2.2,3.8,5.4,3.8,8.9Z"/>
        <path d="M216.9,1310.4c0,6.9-5.6,12.7-12.5,13-6.9.2-12.5-5.2-12.5-12.1s5.6-12.7,12.5-13c6.9-.2,12.5,5.2,12.5,12.1Z"/>
      </g>
      <g>
        <path d="M1785.4,1076c0,3.2-1.2,6.2-3.1,8.4-2.3,2.7-5.7,4.5-9.4,4.6-3.7.1-7.1-1.4-9.4-3.9-1.9-2.1-3.1-5-3.1-8.2s0-1.1,0-1.5c.5-4.4,3.3-8.2,7.2-10.1,1.6-.8,3.3-1.3,5.2-1.3,1.9,0,3.6.3,5.2,1,3.9,1.6,6.7,5.2,7.2,9.6,0,.5,0,1,0,1.5Z"/>
        <path d="M1785.4,1255.7c0,6.9-5.6,12.7-12.5,13-6.9.2-12.5-5.2-12.5-12.1s5.6-12.7,12.5-13c6.9-.2,12.5,5.2,12.5,12.1Z"/>
      </g>
      <path d="M1094,758.3c1.9-13.1,2.7-25.7.8-37.9-5.6-37.8-31.8-66.6-58.6-91.7,55,8.5,98.3,81.3,57.8,129.6Z"/>
      <path class="st0" d="M1094,758.3c1.9-13.1,2.7-25.7.8-37.9-5.6-37.8-31.8-66.6-58.6-91.7,55,8.5,98.3,81.3,57.8,129.6Z"/>
      <g>
        <path class="st0" d="M953.1,1043.4c24.6-15.8,59.8-31.8,110-44.1v40.3l-110,3.8Z"/>
        <path class="st0" d="M882.9,851c-11.6,10.4-15.6,19.1-15.6,19.1,0,0-.7-12.2,8-26.4,1.6-2.7,3.6-5.4,6-8.1,2-2.4,4.4-4.8,7.1-7.2,16.7-14.6,46.5-27.6,99.8-28.8,48.9-1.1,74.6,16.5,88.1,33.5,2.2,2.8,4,5.5,5.6,8.1,1.9,3.1,3.3,6.1,4.5,8.8,3.6,8.4,4.3,14.4,4.3,14.4-3.1-3.7-6.4-7-9.8-9.9-2.6-2.2-5.2-4.2-7.9-6-3-2-6.1-3.8-9.2-5.4-35.6-18.1-75.5-8.6-75.5-8.6v-18.9c-42,1.5-70.3,11.8-88.8,23.1-3.2,1.9-6.1,3.9-8.7,5.8-2.9,2.2-5.5,4.3-7.8,6.4Z"/>
        <path class="st0" d="M1036.2,628.6c55,8.5,98.3,81.3,57.8,129.6,1.9-13.1,2.7-25.7.8-37.9-5.6-37.8-31.8-66.6-58.6-91.7Z"/>
        <path class="st0" d="M1816.5,1078.5c0,.7,0,1.3,0,2v168.4c0,26.2-21.3,48.3-47.6,49.2l-1561.6,54.5c-8.7.3-16.9-1.8-24-5.7-3.6-2-6.9-4.5-9.9-7.3-4.1-4-7.5-8.9-9.9-14.3-2.5-5.7-3.8-12-3.8-18.6v-168.4c0-26.2,21.3-48.3,47.6-49.2l1561.6-54.5c21.6-.8,39.9,13.1,45.7,32.6,1.1,3.6,1.7,7.4,1.8,11.3Z"/>
        <path class="st0" d="M1849.1,1072.5c-3.5-40.9-38.3-72.2-80.1-70.7l-673,23.5v-74.6c37.4-22.5,58.7-54.4,58.7-88.3s-6.6-36.8-19.2-52.5c13.8-25.4,21.1-53.6,21.1-82.2,0-92.8-75.5-165.7-168.3-162.4-92.8,3.3-168.4,81.4-168.4,174.2s5.8,50.2,16.7,72.5c-17.3,18.7-26.5,40.2-26.5,62.5,0,34,21.3,64.4,58.7,84.3v74.6l-661.5,23.1c-44.3,1.5-80.4,38.9-80.4,83.2v168.4c0,21.5,8.6,41.7,23.9,56.3,3.5,40.9,38.3,72.2,80.1,70.7l1561.6-54.5c44.3-1.5,80.4-38.9,80.4-83.2v-168.4c0-21.6-8.6-41.8-23.9-56.3ZM1859.9,1297.7c0,37.1-30.2,68.3-67.3,69.6l-1561.6,54.5c-36.8,1.3-66.8-27.4-67.3-64-14.4-11.8-23.6-29.8-23.6-50.2v-168.4c0-37.1,30.2-68.3,67.3-69.6l674.6-23.5v-95.6c-36-17-58.7-44.3-58.7-76.4s10.9-42.9,29.5-60c-12.6-22-19.8-47.6-19.8-75.1,0-85.6,69.6-157.6,155.2-160.6,85.6-3,155.2,64.2,155.2,149.8s-8.8,59.2-24,83.7c14.1,14.5,22.2,31.9,22.2,51,0,32.1-22.7,61-58.7,80.5v95.6l686.2-23.9c36.8-1.3,66.8,27.3,67.2,64,14.5,11.8,23.6,29.8,23.6,50.3v168.4Z"/>
        <path class="st0" d="M1090.6,864.6c-3.1-3.7-6.4-7-9.8-9.9-2.6-2.2-5.2-4.2-7.9-6-3-2-6.1-3.8-9.2-5.4-35.6-18.1-75.5-8.6-75.5-8.6v-18.9c-42,1.5-70.3,11.8-88.8,23.1-3.2,1.9-6.1,3.9-8.7,5.8-2.9,2.2-5.5,4.3-7.8,6.4-11.6,10.4-15.6,19.1-15.6,19.1,0,0-.7-12.2,8-26.4,1.6-2.7,3.6-5.4,6-8.1,2-2.4,4.4-4.8,7.1-7.2,16.7-14.6,46.5-27.6,99.8-28.8,48.9-1.1,74.6,16.5,88.1,33.5,2.2,2.8,4,5.5,5.6,8.1,1.9,3.1,3.3,6.1,4.5,8.8,3.6,8.4,4.3,14.4,4.3,14.4Z"/>
      </g>
    </g>
  </g>
  <g>
    <g>
      <path class="st0" d="M1063.1,999.3v40.3l-110,3.8c24.6-15.8,59.8-31.8,110-44.1Z"/>
      <g>
        <path d="M216.9,1310.4c0,6.9-5.6,12.7-12.5,13-6.9.2-12.5-5.2-12.5-12.1s5.6-12.7,12.5-13c6.9-.2,12.5,5.2,12.5,12.1Z"/>
        <path d="M362.6,1242.2c0,27.3-18.5,49.9-58.4,51.3-31.7,1.1-54.1-14.3-60.9-41.2l33.3-14.9c2.5,11.2,11.7,25.5,31.9,24.8,13.6-.5,19.7-6.6,19.7-14.5,0-27.8-79.7-2.1-79.7-58.7s19.7-46.3,55.7-47.6c28.8-1,47.5,11.7,56.3,37.3l-31.9,12.6c-3.5-12.2-11.5-20.4-27.1-19.8-10.5.4-18.5,4.6-18.5,12.3,0,23,79.5,2,79.5,58.3Z"/>
        <polygon points="488.3 1137.1 488.3 1169 448.6 1170.4 448.6 1286.5 412.9 1287.7 412.9 1171.6 373 1173 373 1141.2 488.3 1137.1"/>
        <path d="M625.6,1280.3l-33.5,1.2c-3.5-2.5-5.4-7.6-6.2-11.5l-6.1-28.1c-1.9-9-7.6-11.3-15.2-11l-24,.8v51.6l-35.8,1.2v-148l72.3-2.5c23.6-.8,37.8,17.2,37.8,39.6s-10.5,32.2-26.3,38.1c12.5.8,19.7,6.3,21.6,15.3l7.2,34.3c1.4,6.7,4.3,14.8,8.2,19Z"/>
        <polygon points="748.4 1244.2 748.4 1276 639.3 1279.8 639.3 1131.9 746.4 1128.1 746.4 1160 675.1 1162.5 675.1 1188.8 743.9 1186.4 743.9 1218.2 675.1 1220.6 675.1 1246.7 748.4 1244.2"/>
        <polygon points="872.3 1239.8 872.3 1271.7 763.2 1275.5 763.2 1127.5 870.3 1123.8 870.3 1155.7 799 1158.2 799 1184.4 867.8 1182 867.8 1213.9 799 1216.3 799 1242.4 872.3 1239.8"/>
        <polygon points="1242.2 1110.8 1242.2 1258.8 1206.4 1260 1206.4 1112.1 1242.2 1110.8"/>
        <polygon points="1370.8 1222.4 1370.8 1254.3 1261.7 1258.1 1261.7 1110.1 1368.8 1106.4 1368.8 1138.3 1297.5 1140.7 1297.5 1167 1366.3 1164.6 1366.3 1196.5 1297.5 1198.9 1297.5 1225 1370.8 1222.4"/>
        <polygon points="1609.6 1097.8 1559.7 1247.7 1520.8 1249 1494.5 1155.4 1468.4 1250.9 1429.4 1252.2 1379.6 1105.8 1418.1 1104.4 1448.5 1210.1 1475.6 1102.4 1513.6 1101.1 1540.5 1206.8 1571.2 1099.1 1609.6 1097.8"/>
        <path d="M1733.1,1194.4c0,27.3-18.5,49.9-58.4,51.3-31.7,1.1-54.1-14.3-60.8-41.2l33.3-14.9c2.5,11.2,11.7,25.5,31.9,24.8,13.6-.5,19.7-6.6,19.7-14.5,0-27.8-79.7-2.1-79.7-58.7s19.7-46.3,55.7-47.6c28.8-1,47.5,11.7,56.3,37.3l-31.9,12.6c-3.5-12.2-11.5-20.4-27.1-19.8-10.5.4-18.5,4.6-18.5,12.3,0,23,79.5,2,79.5,58.3Z"/>
        <path d="M1785.4,1255.7c0,6.9-5.6,12.7-12.5,13-6.9.2-12.5-5.2-12.5-12.1s5.6-12.7,12.5-13c6.9-.2,12.5,5.2,12.5,12.1Z"/>
      </g>
      <g>
        <path class="st0" d="M216.9,1310.4c0,6.9-5.6,12.7-12.5,13-6.9.2-12.5-5.2-12.5-12.1s5.6-12.7,12.5-13c6.9-.2,12.5,5.2,12.5,12.1Z"/>
        <path class="st0" d="M362.6,1242.2c0,27.3-18.5,49.9-58.4,51.3-31.7,1.1-54.1-14.3-60.9-41.2l33.3-14.9c2.5,11.2,11.7,25.5,31.9,24.8,13.6-.5,19.7-6.6,19.7-14.5,0-27.8-79.7-2.1-79.7-58.7s19.7-46.3,55.7-47.6c28.8-1,47.5,11.7,56.3,37.3l-31.9,12.6c-3.5-12.2-11.5-20.4-27.1-19.8-10.5.4-18.5,4.6-18.5,12.3,0,23,79.5,2,79.5,58.3Z"/>
        <polygon class="st0" points="488.3 1137.1 488.3 1169 448.6 1170.4 448.6 1286.5 412.9 1287.7 412.9 1171.6 373 1173 373 1141.2 488.3 1137.1"/>
        <path class="st0" d="M625.6,1280.3l-33.5,1.2c-3.5-2.5-5.4-7.6-6.2-11.5l-6.1-28.1c-1.9-9-7.6-11.3-15.2-11l-24,.8v51.6l-35.8,1.2v-148l72.3-2.5c23.6-.8,37.8,17.2,37.8,39.6s-10.5,32.2-26.3,38.1c12.5.8,19.7,6.3,21.6,15.3l7.2,34.3c1.4,6.7,4.3,14.8,8.2,19Z"/>
        <polygon class="st0" points="748.4 1244.2 748.4 1276 639.3 1279.8 639.3 1131.9 746.4 1128.1 746.4 1160 675.1 1162.5 675.1 1188.8 743.9 1186.4 743.9 1218.2 675.1 1220.6 675.1 1246.7 748.4 1244.2"/>
        <polygon class="st0" points="872.3 1239.8 872.3 1271.7 763.2 1275.5 763.2 1127.5 870.3 1123.8 870.3 1155.7 799 1158.2 799 1184.4 867.8 1182 867.8 1213.9 799 1216.3 799 1242.4 872.3 1239.8"/>
        <polygon class="st0" points="1242.2 1110.8 1242.2 1258.8 1206.4 1260 1206.4 1112.1 1242.2 1110.8"/>
        <polygon class="st0" points="1370.8 1222.4 1370.8 1254.3 1261.7 1258.1 1261.7 1110.1 1368.8 1106.4 1368.8 1138.3 1297.5 1140.7 1297.5 1167 1366.3 1164.6 1366.3 1196.5 1297.5 1198.9 1297.5 1225 1370.8 1222.4"/>
        <polygon class="st0" points="1609.6 1097.8 1559.7 1247.7 1520.8 1249 1494.5 1155.4 1468.4 1250.9 1429.4 1252.2 1379.6 1105.8 1418.1 1104.4 1448.5 1210.1 1475.6 1102.4 1513.6 1101.1 1540.5 1206.8 1571.2 1099.1 1609.6 1097.8"/>
        <path class="st0" d="M1733.1,1194.4c0,27.3-18.5,49.9-58.4,51.3-31.7,1.1-54.1-14.3-60.8-41.2l33.3-14.9c2.5,11.2,11.7,25.5,31.9,24.8,13.6-.5,19.7-6.6,19.7-14.5,0-27.8-79.7-2.1-79.7-58.7s19.7-46.3,55.7-47.6c28.8-1,47.5,11.7,56.3,37.3l-31.9,12.6c-3.5-12.2-11.5-20.4-27.1-19.8-10.5.4-18.5,4.6-18.5,12.3,0,23,79.5,2,79.5,58.3Z"/>
        <path class="st0" d="M1785.4,1255.7c0,6.9-5.6,12.7-12.5,13-6.9.2-12.5-5.2-12.5-12.1s5.6-12.7,12.5-13c6.9-.2,12.5,5.2,12.5,12.1Z"/>
      </g>
      <g>
        <path d="M283,1184c0-7.8,8-12,18.5-12.3,15.6-.5,23.6,7.6,27.1,19.8l31.9-12.6c-8.8-25.6-27.5-38.3-56.3-37.3-36,1.3-55.7,19.2-55.7,47.6,0,56.5,79.7,30.9,79.7,58.7s-6.2,14-19.7,14.5c-20.1.7-29.4-13.6-31.9-24.8l-33.3,14.9c6.8,26.9,29.2,42.3,60.9,41.2,39.8-1.4,58.4-24,58.4-51.3,0-56.3-79.5-35.3-79.5-58.3Z"/>
        <path d="M373,1141.2v31.9l39.9-1.4v116.1l35.8-1.2v-116.1l39.7-1.4v-31.9l-115.3,4Z"/>
        <path d="M617.3,1261.3l-7.2-34.3c-1.9-9-9.1-14.5-21.6-15.3,15.8-5.9,26.3-17.8,26.3-38.1s-14.2-40.4-37.8-39.6l-72.3,2.5v148l35.8-1.2v-51.6l24-.8c7.6-.3,13.3,2,15.2,11l6.1,28.1c.8,3.9,2.7,9,6.2,11.5l33.5-1.2c-3.9-4.2-6.8-12.3-8.2-19ZM563.3,1199.3l-22.8.8v-36.6l21-.7c13.1-.5,21.6,4.4,21.6,18.2s-7.4,17.9-19.7,18.4Z"/>
        <path d="M675.1,1246.7v-26.1l68.8-2.4v-31.9l-68.8,2.4v-26.3l71.3-2.5v-31.9l-107.1,3.7v148l109.1-3.8v-31.9l-73.3,2.6Z"/>
        <path d="M799,1242.4v-26.1l68.8-2.4v-31.9l-68.8,2.4v-26.3l71.3-2.5v-31.9l-107.1,3.7v148l109.1-3.8v-31.9l-73.4,2.6Z"/>
        <path d="M1206.4,1112.1v148l35.8-1.2v-148l-35.8,1.2Z"/>
        <path d="M1297.5,1225v-26.1l68.8-2.4v-31.9l-68.8,2.4v-26.3l71.3-2.5v-31.9l-107.1,3.7v148l109.1-3.8v-31.9l-73.3,2.6Z"/>
        <path d="M1571.2,1099.1l-30.6,107.7-26.9-105.7-38,1.3-27.1,107.6-30.4-105.6-38.4,1.3,49.7,146.4,39.1-1.4,26.1-95.4,26.3,93.6,38.8-1.4,50-149.9-38.4,1.3Z"/>
        <path d="M1653.6,1136.1c0-7.8,8-12,18.5-12.3,15.6-.5,23.6,7.6,27.1,19.8l31.9-12.6c-8.8-25.6-27.5-38.3-56.3-37.3-36,1.3-55.7,19.2-55.7,47.6,0,56.5,79.7,30.9,79.7,58.7s-6.2,14-19.7,14.5c-20.1.7-29.4-13.6-31.9-24.8l-33.3,14.9c6.8,26.9,29.2,42.3,60.8,41.2,39.9-1.4,58.4-24,58.4-51.3,0-56.3-79.5-35.3-79.5-58.3Z"/>
      </g>
      <path d="M216.9,1310.4c0,6.9-5.6,12.7-12.5,13-6.9.2-12.5-5.2-12.5-12.1s5.6-12.7,12.5-13c6.9-.2,12.5,5.2,12.5,12.1Z"/>
      <path d="M1785.4,1255.7c0,6.9-5.6,12.7-12.5,13-6.9.2-12.5-5.2-12.5-12.1s5.6-12.7,12.5-13c6.9-.2,12.5,5.2,12.5,12.1Z"/>
      <g>
        <path d="M1094,758.3c1.9-13.1,2.7-25.7.8-37.9-5.6-37.8-31.8-66.6-58.6-91.7,55,8.5,98.3,81.3,57.8,129.6Z"/>
        <path d="M1836.2,1078.9c-.5-36.7-30.4-65.3-67.2-64l-686.2,23.9v-95.6c36-19.5,58.7-48.4,58.7-80.5s-8-36.5-22.2-51c15.2-24.6,24-53.3,24-83.7,0-85.6-69.6-152.8-155.2-149.8-85.6,3-155.2,75-155.2,160.6s7.2,53.1,19.8,75.1c-18.7,17.1-29.5,37.8-29.5,60,0,32.1,22.7,59.4,58.7,76.4v95.6l-674.6,23.5c-37.1,1.3-67.3,32.5-67.3,69.6v168.4c0,20.4,9.2,38.4,23.6,50.2.4,36.7,30.4,65.3,67.3,64l1561.6-54.5c37.1-1.3,67.3-32.5,67.3-69.6v-168.4c0-20.5-9.2-38.5-23.6-50.3ZM1094,758.3c1.9-13.1,2.7-25.7.8-37.9-5.6-37.8-31.8-66.6-58.6-91.7,55,8.5,98.3,81.3,57.8,129.6ZM867.3,870.2s-.7-12.2,8-26.4c1.6-2.7,3.6-5.4,6-8.1,2-2.4,4.4-4.8,7.1-7.2,16.7-14.6,46.5-27.6,99.8-28.8,48.9-1.1,74.6,16.5,88.1,33.5,2.2,2.8,4,5.5,5.6,8.1,1.9,3.1,3.3,6.1,4.5,8.8,3.6,8.4,4.3,14.4,4.3,14.4-3.1-3.7-6.4-7-9.8-9.9-2.6-2.2-5.2-4.2-7.9-6-3-2-6.1-3.8-9.2-5.4-35.6-18.1-75.5-8.6-75.5-8.6v-18.9c-42,1.5-70.3,11.8-88.8,23.1-3.2,1.9-6.1,3.9-8.7,5.8-2.9,2.2-5.5,4.3-7.8,6.4-11.6,10.4-15.6,19.1-15.6,19.1ZM1063.1,999.3v40.3l-110,3.8c24.6-15.8,59.8-31.8,110-44.1ZM1816.6,1249c0,26.2-21.3,48.3-47.6,49.2l-1561.6,54.5c-8.7.3-16.9-1.8-24-5.7-3.6-2-6.9-4.5-9.9-7.3-4.1-4-7.5-8.9-9.9-14.3-2.5-5.7-3.8-12-3.8-18.6v-168.4c0-26.2,21.3-48.3,47.6-49.2l1561.6-54.5c21.6-.8,39.9,13.1,45.7,32.6,1.1,3.6,1.7,7.4,1.8,11.3,0,.7,0,1.3,0,2v168.4Z"/>
      </g>
      <path class="st0" d="M1094,758.3c1.9-13.1,2.7-25.7.8-37.9-5.6-37.8-31.8-66.6-58.6-91.7,55,8.5,98.3,81.3,57.8,129.6Z"/>
    </g>
    <g>
      <path class="st0" d="M1063.1,999.3v40.3l-110,3.8c24.6-15.8,59.8-31.8,110-44.1Z"/>
      <g>
        <path d="M216.9,1310.4c0,6.9-5.6,12.7-12.5,13-6.9.2-12.5-5.2-12.5-12.1s5.6-12.7,12.5-13c6.9-.2,12.5,5.2,12.5,12.1Z"/>
        <path d="M362.6,1242.2c0,27.3-18.5,49.9-58.4,51.3-31.7,1.1-54.1-14.3-60.9-41.2l33.3-14.9c2.5,11.2,11.7,25.5,31.9,24.8,13.6-.5,19.7-6.6,19.7-14.5,0-27.8-79.7-2.1-79.7-58.7s19.7-46.3,55.7-47.6c28.8-1,47.5,11.7,56.3,37.3l-31.9,12.6c-3.5-12.2-11.5-20.4-27.1-19.8-10.5.4-18.5,4.6-18.5,12.3,0,23,79.5,2,79.5,58.3Z"/>
        <polygon points="488.3 1137.1 488.3 1169 448.6 1170.4 448.6 1286.5 412.9 1287.7 412.9 1171.6 373 1173 373 1141.2 488.3 1137.1"/>
        <path d="M625.6,1280.3l-33.5,1.2c-3.5-2.5-5.4-7.6-6.2-11.5l-6.1-28.1c-1.9-9-7.6-11.3-15.2-11l-24,.8v51.6l-35.8,1.2v-148l72.3-2.5c23.6-.8,37.8,17.2,37.8,39.6s-10.5,32.2-26.3,38.1c12.5.8,19.7,6.3,21.6,15.3l7.2,34.3c1.4,6.7,4.3,14.8,8.2,19Z"/>
        <polygon points="748.4 1244.2 748.4 1276 639.3 1279.8 639.3 1131.9 746.4 1128.1 746.4 1160 675.1 1162.5 675.1 1188.8 743.9 1186.4 743.9 1218.2 675.1 1220.6 675.1 1246.7 748.4 1244.2"/>
        <polygon points="872.3 1239.8 872.3 1271.7 763.2 1275.5 763.2 1127.5 870.3 1123.8 870.3 1155.7 799 1158.2 799 1184.4 867.8 1182 867.8 1213.9 799 1216.3 799 1242.4 872.3 1239.8"/>
        <polygon points="1242.2 1110.8 1242.2 1258.8 1206.4 1260 1206.4 1112.1 1242.2 1110.8"/>
        <polygon points="1370.8 1222.4 1370.8 1254.3 1261.7 1258.1 1261.7 1110.1 1368.8 1106.4 1368.8 1138.3 1297.5 1140.7 1297.5 1167 1366.3 1164.6 1366.3 1196.5 1297.5 1198.9 1297.5 1225 1370.8 1222.4"/>
        <polygon points="1609.6 1097.8 1559.7 1247.7 1520.8 1249 1494.5 1155.4 1468.4 1250.9 1429.4 1252.2 1379.6 1105.8 1418.1 1104.4 1448.5 1210.1 1475.6 1102.4 1513.6 1101.1 1540.5 1206.8 1571.2 1099.1 1609.6 1097.8"/>
        <path d="M1733.1,1194.4c0,27.3-18.5,49.9-58.4,51.3-31.7,1.1-54.1-14.3-60.8-41.2l33.3-14.9c2.5,11.2,11.7,25.5,31.9,24.8,13.6-.5,19.7-6.6,19.7-14.5,0-27.8-79.7-2.1-79.7-58.7s19.7-46.3,55.7-47.6c28.8-1,47.5,11.7,56.3,37.3l-31.9,12.6c-3.5-12.2-11.5-20.4-27.1-19.8-10.5.4-18.5,4.6-18.5,12.3,0,23,79.5,2,79.5,58.3Z"/>
        <path d="M1785.4,1255.7c0,6.9-5.6,12.7-12.5,13-6.9.2-12.5-5.2-12.5-12.1s5.6-12.7,12.5-13c6.9-.2,12.5,5.2,12.5,12.1Z"/>
      </g>
      <g>
        <path class="st0" d="M1816.5,1078.5c-.1-3.9-.8-7.7-1.8-11.3-5.7-19.6-24-33.4-45.7-32.6l-1561.6,54.5c-26.2.9-47.6,23-47.6,49.2v168.4c0,6.6,1.4,12.9,3.8,18.6,2.4,5.4,5.7,10.2,9.9,14.3,2.9,2.9,6.2,5.4,9.9,7.3,7.1,3.9,15.3,6,24,5.7l1561.6-54.5c26.2-.9,47.6-23,47.6-49.2v-168.4c0-.7,0-1.3,0-2ZM204.4,1323.4c-6.9.3-12.5-5.2-12.5-12.1s5.6-12.7,12.5-13c6.9-.2,12.5,5.2,12.5,12.1s-5.6,12.7-12.5,13ZM216.9,1130.9c0,6.9-5.7,12.6-12.5,12.8-2.9.1-5.6-.8-7.8-2.4-2.6-2-4.4-5-4.7-8.5,0-.4,0-.8,0-1.1,0-6.9,5.6-12.7,12.5-13,3.4,0,6.5,1.1,8.7,3.3,2.4,2.2,3.8,5.4,3.8,8.9v.2ZM304.2,1293.6c-31.7,1.1-54.1-14.3-60.9-41.2l33.3-14.9c2.5,11.2,11.7,25.5,31.9,24.8,13.6-.5,19.7-6.6,19.7-14.5,0-27.8-79.7-2.1-79.7-58.7s19.7-46.3,55.7-47.6c28.8-1,47.5,11.7,56.3,37.3l-31.9,12.6c-3.5-12.2-11.5-20.3-27.1-19.8-10.5.4-18.5,4.6-18.5,12.3,0,23,79.5,1.9,79.5,58.3s-18.5,50-58.4,51.3ZM488.3,1169l-39.7,1.4v116.1l-35.8,1.2v-116.1l-39.9,1.4v-31.9l115.3-4v31.9ZM592,1281.5c-3.5-2.5-5.4-7.6-6.2-11.5l-6.1-28.1c-1.9-9-7.6-11.3-15.2-11l-24,.8v51.6l-35.8,1.2v-148l72.3-2.5c23.6-.8,37.8,17.2,37.8,39.6s-10.5,32.2-26.3,38.1c12.5.8,19.7,6.3,21.6,15.3l7.2,34.3c1.4,6.7,4.3,14.8,8.2,19l-33.5,1.1ZM748.4,1276l-109.1,3.8v-148l107.1-3.7v31.9l-71.3,2.5v26.3l68.8-2.4v31.9l-68.8,2.4v26.1l73.3-2.6v31.9ZM872.3,1271.7l-109.1,3.8v-148l107.1-3.7v31.9l-71.3,2.5v26.3l68.8-2.4v31.9l-68.8,2.4v26.1l73.4-2.6v31.9ZM999.5,1151.2l-39.7,1.4v116.1l-35.7,1.2v-116.1l-39.9,1.4v-31.9l115.3-4v31.9ZM1143.3,1262.2l-42.5,1.5-18-52.9-19.7-58-12.1-35.5,38.4-1.3,32.9,113.9,32.9-116.2,38-1.3-50,149.9ZM1242.2,1258.8l-35.8,1.2v-148l35.8-1.2v148ZM1370.8,1254.3l-109.1,3.8v-148l107.1-3.7v31.9l-71.3,2.5v26.3l68.8-2.4v31.9l-68.8,2.4v26.1l73.3-2.6v31.9ZM1559.7,1247.7l-38.8,1.4-26.3-93.6-26.1,95.4-39.1,1.4-49.7-146.4,38.4-1.3,30.4,105.6,27.1-107.6,38-1.3,26.9,105.8,30.6-107.8,38.4-1.3-50,149.9ZM1674.7,1245.7c-31.7,1.1-54.1-14.3-60.8-41.2l33.3-14.9c2.5,11.2,11.7,25.5,31.9,24.8,13.6-.5,19.7-6.6,19.7-14.4,0-27.8-79.7-2.2-79.7-58.7s19.7-46.3,55.7-47.6c28.8-1,47.5,11.7,56.3,37.3l-31.9,12.6c-3.5-12.2-11.5-20.4-27.1-19.8-10.5.4-18.5,4.6-18.5,12.3,0,23,79.5,1.9,79.5,58.3s-18.5,50-58.4,51.3ZM1772.9,1268.7c-6.9.2-12.5-5.2-12.5-12.1s5.6-12.7,12.5-13c6.9-.3,12.5,5.2,12.5,12.1s-5.6,12.7-12.5,13ZM1782.3,1084.4c-2.3,2.7-5.7,4.5-9.4,4.6-3.7.1-7.1-1.4-9.4-3.9-1.9-2.1-3.1-5-3.1-8.2s0-1.1,0-1.5c.5-4.4,3.4-8.2,7.2-10.1,1.6-.8,3.4-1.2,5.2-1.3,1.9,0,3.6.3,5.2,1,3.9,1.6,6.7,5.2,7.2,9.6,0,.5,0,1,0,1.5,0,3.2-1.2,6.2-3.1,8.4Z"/>
        <path class="st0" d="M216.9,1310.4c0,6.9-5.6,12.7-12.5,13-6.9.2-12.5-5.2-12.5-12.1s5.6-12.7,12.5-13c6.9-.2,12.5,5.2,12.5,12.1Z"/>
        <path class="st0" d="M362.6,1242.2c0,27.3-18.5,49.9-58.4,51.3-31.7,1.1-54.1-14.3-60.9-41.2l33.3-14.9c2.5,11.2,11.7,25.5,31.9,24.8,13.6-.5,19.7-6.6,19.7-14.5,0-27.8-79.7-2.1-79.7-58.7s19.7-46.3,55.7-47.6c28.8-1,47.5,11.7,56.3,37.3l-31.9,12.6c-3.5-12.2-11.5-20.4-27.1-19.8-10.5.4-18.5,4.6-18.5,12.3,0,23,79.5,2,79.5,58.3Z"/>
        <polygon class="st0" points="488.3 1137.1 488.3 1169 448.6 1170.4 448.6 1286.5 412.9 1287.7 412.9 1171.6 373 1173 373 1141.2 488.3 1137.1"/>
        <path class="st0" d="M625.6,1280.3l-33.5,1.2c-3.5-2.5-5.4-7.6-6.2-11.5l-6.1-28.1c-1.9-9-7.6-11.3-15.2-11l-24,.8v51.6l-35.8,1.2v-148l72.3-2.5c23.6-.8,37.8,17.2,37.8,39.6s-10.5,32.2-26.3,38.1c12.5.8,19.7,6.3,21.6,15.3l7.2,34.3c1.4,6.7,4.3,14.8,8.2,19Z"/>
        <polygon class="st0" points="748.4 1244.2 748.4 1276 639.3 1279.8 639.3 1131.9 746.4 1128.1 746.4 1160 675.1 1162.5 675.1 1188.8 743.9 1186.4 743.9 1218.2 675.1 1220.6 675.1 1246.7 748.4 1244.2"/>
        <polygon class="st0" points="872.3 1239.8 872.3 1271.7 763.2 1275.5 763.2 1127.5 870.3 1123.8 870.3 1155.7 799 1158.2 799 1184.4 867.8 1182 867.8 1213.9 799 1216.3 799 1242.4 872.3 1239.8"/>
        <polygon class="st0" points="1242.2 1110.8 1242.2 1258.8 1206.4 1260 1206.4 1112.1 1242.2 1110.8"/>
        <polygon class="st0" points="1370.8 1222.4 1370.8 1254.3 1261.7 1258.1 1261.7 1110.1 1368.8 1106.4 1368.8 1138.3 1297.5 1140.7 1297.5 1167 1366.3 1164.6 1366.3 1196.5 1297.5 1198.9 1297.5 1225 1370.8 1222.4"/>
        <polygon class="st0" points="1609.6 1097.8 1559.7 1247.7 1520.8 1249 1494.5 1155.4 1468.4 1250.9 1429.4 1252.2 1379.6 1105.8 1418.1 1104.4 1448.5 1210.1 1475.6 1102.4 1513.6 1101.1 1540.5 1206.8 1571.2 1099.1 1609.6 1097.8"/>
        <path class="st0" d="M1733.1,1194.4c0,27.3-18.5,49.9-58.4,51.3-31.7,1.1-54.1-14.3-60.8-41.2l33.3-14.9c2.5,11.2,11.7,25.5,31.9,24.8,13.6-.5,19.7-6.6,19.7-14.5,0-27.8-79.7-2.1-79.7-58.7s19.7-46.3,55.7-47.6c28.8-1,47.5,11.7,56.3,37.3l-31.9,12.6c-3.5-12.2-11.5-20.4-27.1-19.8-10.5.4-18.5,4.6-18.5,12.3,0,23,79.5,2,79.5,58.3Z"/>
        <path class="st0" d="M1785.4,1255.7c0,6.9-5.6,12.7-12.5,13-6.9.2-12.5-5.2-12.5-12.1s5.6-12.7,12.5-13c6.9-.2,12.5,5.2,12.5,12.1Z"/>
      </g>
      <g>
        <path d="M283,1184c0-7.8,8-12,18.5-12.3,15.6-.5,23.6,7.6,27.1,19.8l31.9-12.6c-8.8-25.6-27.5-38.3-56.3-37.3-36,1.3-55.7,19.2-55.7,47.6,0,56.5,79.7,30.9,79.7,58.7s-6.2,14-19.7,14.5c-20.1.7-29.4-13.6-31.9-24.8l-33.3,14.9c6.8,26.9,29.2,42.3,60.9,41.2,39.8-1.4,58.4-24,58.4-51.3,0-56.3-79.5-35.3-79.5-58.3Z"/>
        <path d="M373,1141.2v31.9l39.9-1.4v116.1l35.8-1.2v-116.1l39.7-1.4v-31.9l-115.3,4Z"/>
        <path d="M617.3,1261.3l-7.2-34.3c-1.9-9-9.1-14.5-21.6-15.3,15.8-5.9,26.3-17.8,26.3-38.1s-14.2-40.4-37.8-39.6l-72.3,2.5v148l35.8-1.2v-51.6l24-.8c7.6-.3,13.3,2,15.2,11l6.1,28.1c.8,3.9,2.7,9,6.2,11.5l33.5-1.2c-3.9-4.2-6.8-12.3-8.2-19ZM563.3,1199.3l-22.8.8v-36.6l21-.7c13.1-.5,21.6,4.4,21.6,18.2s-7.4,17.9-19.7,18.4Z"/>
        <path d="M675.1,1246.7v-26.1l68.8-2.4v-31.9l-68.8,2.4v-26.3l71.3-2.5v-31.9l-107.1,3.7v148l109.1-3.8v-31.9l-73.3,2.6Z"/>
        <path d="M799,1242.4v-26.1l68.8-2.4v-31.9l-68.8,2.4v-26.3l71.3-2.5v-31.9l-107.1,3.7v148l109.1-3.8v-31.9l-73.4,2.6Z"/>
        <polygon points="999.5 1119.3 999.5 1151.2 959.9 1152.5 959.9 1268.6 924.1 1269.9 924.1 1153.8 884.3 1155.2 884.3 1123.3 999.5 1119.3"/>
        <polygon points="1193.3 1112.3 1143.3 1262.2 1100.8 1263.7 1082.9 1210.8 1063.1 1152.8 1051.1 1117.3 1089.5 1115.9 1122.4 1229.9 1155.3 1113.6 1193.3 1112.3"/>
        <path d="M1206.4,1112.1v148l35.8-1.2v-148l-35.8,1.2Z"/>
        <path d="M1297.5,1225v-26.1l68.8-2.4v-31.9l-68.8,2.4v-26.3l71.3-2.5v-31.9l-107.1,3.7v148l109.1-3.8v-31.9l-73.3,2.6Z"/>
        <path d="M1571.2,1099.1l-30.6,107.7-26.9-105.7-38,1.3-27.1,107.6-30.4-105.6-38.4,1.3,49.7,146.4,39.1-1.4,26.1-95.4,26.3,93.6,38.8-1.4,50-149.9-38.4,1.3Z"/>
        <path d="M1653.6,1136.1c0-7.8,8-12,18.5-12.3,15.6-.5,23.6,7.6,27.1,19.8l31.9-12.6c-8.8-25.6-27.5-38.3-56.3-37.3-36,1.3-55.7,19.2-55.7,47.6,0,56.5,79.7,30.9,79.7,58.7s-6.2,14-19.7,14.5c-20.1.7-29.4-13.6-31.9-24.8l-33.3,14.9c6.8,26.9,29.2,42.3,60.8,41.2,39.9-1.4,58.4-24,58.4-51.3,0-56.3-79.5-35.3-79.5-58.3Z"/>
      </g>
      <g>
        <path d="M216.9,1130.7v.2c0,6.9-5.7,12.6-12.5,12.8s-5.6-.8-7.8-2.5c-2.6-2-4.4-5-4.7-8.5,0-.4,0-.8,0-1.1,0-6.9,5.6-12.7,12.5-13,3.4-.1,6.5,1.1,8.7,3.2,2.4,2.2,3.8,5.4,3.8,8.9Z"/>
        <path d="M216.9,1310.4c0,6.9-5.6,12.7-12.5,13-6.9.2-12.5-5.2-12.5-12.1s5.6-12.7,12.5-13c6.9-.2,12.5,5.2,12.5,12.1Z"/>
      </g>
      <g>
        <path d="M1785.4,1076c0,3.2-1.2,6.2-3.1,8.4-2.3,2.7-5.7,4.5-9.4,4.6-3.7.1-7.1-1.4-9.4-3.9-1.9-2.1-3.1-5-3.1-8.2s0-1.1,0-1.5c.5-4.4,3.3-8.2,7.2-10.1,1.6-.8,3.3-1.3,5.2-1.3,1.9,0,3.6.3,5.2,1,3.9,1.6,6.7,5.2,7.2,9.6,0,.5,0,1,0,1.5Z"/>
        <path d="M1785.4,1255.7c0,6.9-5.6,12.7-12.5,13-6.9.2-12.5-5.2-12.5-12.1s5.6-12.7,12.5-13c6.9-.2,12.5,5.2,12.5,12.1Z"/>
      </g>
      <path d="M1094,758.3c1.9-13.1,2.7-25.7.8-37.9-5.6-37.8-31.8-66.6-58.6-91.7,55,8.5,98.3,81.3,57.8,129.6Z"/>
      <path class="st0" d="M1094,758.3c1.9-13.1,2.7-25.7.8-37.9-5.6-37.8-31.8-66.6-58.6-91.7,55,8.5,98.3,81.3,57.8,129.6Z"/>
      <path class="st0" d="M1090.6,864.6c-3.1-3.7-6.4-7-9.8-9.9-2.6-2.2-5.2-4.2-7.9-6-3-2-6.1-3.8-9.2-5.4-35.6-18.1-75.5-8.6-75.5-8.6v-18.9c-42,1.5-70.3,11.8-88.8,23.1-3.2,1.9-6.1,3.9-8.7,5.8-2.9,2.2-5.5,4.3-7.8,6.4-11.6,10.4-15.6,19.1-15.6,19.1,0,0-.7-12.2,8-26.4,1.6-2.7,3.6-5.4,6-8.1,2-2.4,4.4-4.8,7.1-7.2,16.7-14.6,46.5-27.6,99.8-28.8,48.9-1.1,74.6,16.5,88.1,33.5,2.2,2.8,4,5.5,5.6,8.1,1.9,3.1,3.3,6.1,4.5,8.8,3.6,8.4,4.3,14.4,4.3,14.4Z"/>
    </g>
  </g>
</svg>