<?xml version="1.0" encoding="UTF-8"?>
<svg id="Layer_1" xmlns="http://www.w3.org/2000/svg" version="1.1" viewBox="0 0 2000 2000">
  <!-- Generator: Adobe Illustrator 30.3.0, SVG Export Plug-In . SVG Version: 2.1.3 Build 182)  -->
  <defs>
    <style>
      .st0 {
        fill: #fff;
      }

      .st1 {
        fill: #ffb600;
      }
    </style>
  </defs>
  <g>
    <path d="M1390.9,1201.9c-3.5,0-7.1-.8-10.4-2.2-9.6-3.7-16-13.4-16-24.2v-86.1H367.6c-14.6,0-26.4-11.8-26.4-26.4s0-8.4,22.9-35h-11.4c0,.1-17.6-5.8-17.6-5.8-3.1,8.7-55.3,60.9-63.2,63.1-2.2.6-4.7,1-7.2,1-6.6,0-13.1-2.3-17.8-6.4l-25.2-21.7c-53.4-5.3-93.7-49.8-93.7-103.5s4.1-16.2,11-21.3c6-6.6,19.2-19.7,26.1-26.4.8-17.6,8.9-34.6,22.1-46.6,5.4-5.5,34.7-34.8,40.2-40.2,13-14.3,30.6-22.2,49.5-22.2,37,0,67,29.9,67.2,66.7l8.4-1.9,53.5-53.5s.1,0,.2,0h56.1c.1,0,.2.1.2.2v7.3l6.5-7.5c0,0,.1,0,.2,0h54.2c0,0,.2,0,.2.1l12.2,22.3,21.3-22.3s.1,0,.2,0h314.8c.1,0,.2.1.2.2v4.2l4-4.4c0,0,.1,0,.2,0h75.6c12.9,0,25.1,3.5,35.3,10.2l9.1-10.1c0,0,.1,0,.2,0h52.9c.1,0,.2,0,.2.2l15.8,41.8,41.9-41.9s.1,0,.2,0h107.9c.1,0,.2.1.2.2v7.3l6.5-7.5c0,0,.1,0,.2,0h173.4c.1,0,.2,0,.2.2l7.7,28.6,27.3-28.7s.1,0,.2,0h55.3c.1,0,.2,0,.2.2l8.3,27.4,27.5-27.5s.1,0,.2,0h178.9c.1,0,.2.1.2.2v4.2l4-4.4c0,0,.1,0,.2,0h65c51.8,0,89.3,36.8,89.3,87.5s-9.7,47.7-27.3,63.6c-3.8,3.9-20.6,20.7-31.3,31.3h43.3c14.6,0,26.4,11.8,26.4,26.4s-4.2,16.5-11.4,21.5c-8.4,9.1-29.4,30.2-38.4,38.4-5,7.2-12.8,11.3-21.5,11.3h-286.3l-104.9,104.8c-4.5,4.9-11.4,7.7-18.7,7.7Z"/>
    <path class="st0" d="M276.9,798.3c36.9,0,67,30,67,66.8l8.8-2,53.6-53.6h56.1v8l6.9-8h54.2l12.4,22.6,21.6-22.6h314.8v4.9h0s4.5-4.9,4.5-4.9h75.6c13,0,25.3,3.6,35.4,10.3l9.2-10.3h52.9l15.9,42.1,42.1-42.1h107.9v8l6.9-8h173.4l7.9,29,27.7-29h55.3l8.4,27.8,27.8-27.8h178.9v4.9h0s4.5-4.9,4.5-4.9h65c51.6,0,89.1,36.7,89.1,87.3s-9.6,47.5-27.2,63.4c-3.9,4-20.8,20.9-31.7,31.8h43.9c14.4,0,26.2,11.7,26.2,26.2s-4.2,16.4-11.3,21.3c-8.2,8.8-29.1,29.9-38.4,38.4-4.9,7.1-12.8,11.3-21.3,11.3h-286.4l-105,104.9c-4.5,4.8-11.1,7.7-18.5,7.7s-7-.8-10.3-2.2c-9.4-3.6-15.9-13.1-15.9-23.9v-86.4H367.6c-14.4,0-26.2-11.7-26.2-26.2s0-8.3,23.2-35.2h-12c0,.1-17.8-5.9-17.8-5.9-2,7.5-55.2,60.9-63.1,63.1-2.1.6-4.6,1-7.1,1-6.6,0-13-2.3-17.7-6.3l-25.3-21.7c-52.9-5.2-93.5-49.6-93.5-103.3s4.1-16.1,10.9-21.1c5.9-6.4,18.6-19.1,26.2-26.5.8-17.7,8.7-34.5,22.1-46.5,5.5-5.6,34.6-34.8,40.2-40.2,13-14.2,30.5-22.1,49.3-22.1M276.9,797.8c-19,0-36.6,7.9-49.7,22.2-5.5,5.3-34.8,34.6-40.2,40.2-13.3,12-21.3,29-22.2,46.6-6.9,6.8-20,19.7-26,26.3-6.9,5.1-11.1,13.1-11.1,21.4,0,26,9.6,51,27.1,70.2,17.4,19.1,41.1,31,66.7,33.6l25.1,21.6c4.7,4.1,11.3,6.4,18,6.4s5-.4,7.2-1c7.9-2.2,59.4-53.6,63.3-63l17.3,5.9c0,0,.1,0,.2,0h10.9c-22.6,26.2-22.6,29.5-22.6,34.6,0,14.7,12,26.7,26.7,26.7h996.7v85.9c0,10.8,6.5,20.6,16.2,24.4,3.3,1.5,6.9,2.2,10.4,2.2,7.4,0,14.3-2.9,18.9-7.8l104.8-104.7h286.2c8.7,0,16.6-4.2,21.7-11.4,9-8.3,29.8-29.2,38.3-38.4,7.3-5.1,11.5-13,11.5-21.7,0-14.7-12-26.7-26.7-26.7h-42.7c10.7-10.6,27-27,30.8-30.9,17.6-15.9,27.3-38.6,27.3-63.8,0-50.9-37.7-87.8-89.6-87.8h-65c-.1,0-.3,0-.4.2l-3.6,3.9v-3.6c0-.3-.2-.5-.5-.5h-178.9c-.1,0-.3,0-.4.1l-27.2,27.2-8.2-27c0-.2-.3-.4-.5-.4h-55.3c-.1,0-.3,0-.4.2l-27,28.4-7.6-28.2c0-.2-.3-.4-.5-.4h-173.4c-.1,0-.3,0-.4.2l-6.1,7v-6.6c0-.3-.2-.5-.5-.5h-107.9c-.1,0-.3,0-.4.1l-41.6,41.6-15.6-41.4c0-.2-.3-.3-.5-.3h-52.9c-.1,0-.3,0-.4.2l-8.9,9.9c-10.2-6.6-22.4-10.1-35.3-10.1h-75.6c-.1,0-.3,0-.4.2l-3.6,3.9v-3.6c0-.3-.2-.5-.5-.5h-314.8c-.1,0-.3,0-.4.2l-21.1,22.1-12-22c0-.2-.3-.3-.4-.3h-54.2c-.1,0-.3,0-.4.2l-6.1,7v-6.6c0-.3-.2-.5-.5-.5h-56.1c-.1,0-.3,0-.4.1l-53.5,53.5-8.1,1.8c-.3-36.8-30.5-66.7-67.5-66.7h0Z"/>
  </g>
  <g>
    <g>
      <path class="st1" d="M276.9,960.6c28.6,0,51.9-23.3,51.9-51.9v-43.5c0-28.6-23.3-51.9-51.9-51.9s-51.9,23.3-51.9,51.9v43.5c0,28.6,23.3,51.9,51.9,51.9ZM247.4,865.2c0-16.3,13.2-29.5,29.5-29.5s29.5,13.2,29.5,29.5v43.5c0,16.3-13.3,29.5-29.5,29.5s-29.5-13.3-29.5-29.5v-43.5Z"/>
      <path class="st1" d="M354.7,898.6c-6.2,0-11.2,5-11.2,11.2,0,21.6-10.5,41.9-28.1,54.2-.4.3-.6.7-1,1-.6.5-1.2,1.1-1.6,1.7-.4.6-.7,1.3-1,2-.2.5-.6.8-.7,1.3l-7.4,25.6-19.4-16.7c-.4-.4-.9-.5-1.4-.8-.7-.4-1.3-.9-2.1-1.2-.7-.3-1.4-.3-2.2-.4-.6,0-1.1-.3-1.7-.3-36.7,0-66.5-29.9-66.5-66.5s-5-11.2-11.2-11.2-11.2,5-11.2,11.2c0,47.6,37.6,86.4,84.5,88.7l29.1,25c2.1,1.7,5,2.7,7.8,2.7s2.2-.1,3.2-.5c3.6-1.1,6.9-4.4,8-8l11-38c21.5-16.7,34.3-42.4,34.3-69.9s-5-11.2-11.2-11.2Z"/>
    </g>
    <rect class="st0" x="412.4" y="824.5" width="34.9" height="143.4"/>
    <polygon class="st0" points="511 878.8 560.1 967.9 598.6 967.9 598.6 824.5 563.8 824.5 563.8 913.6 514.6 824.5 476 824.5 476 967.9 511 967.9 511 878.8"/>
    <polygon class="st0" points="657.7 967.9 692.4 967.9 692.4 855.9 732.9 855.9 732.9 824.5 616.6 824.5 616.6 855.9 657.7 855.9 657.7 967.9"/>
    <polygon class="st0" points="857.2 937.3 785.9 937.3 785.9 909.7 846.5 909.7 846.5 879 785.9 879 785.9 855 857.2 855 857.2 824.5 751 824.5 751 967.9 857.2 967.9 857.2 937.3"/>
    <path class="st0" d="M918.2,916.1h14.9l33,51.8h39.4l-36-55.2c17.7-6.5,29.4-22.8,29.4-42.8s-19.2-45.3-46.6-45.3h-69v143.4h34.9v-51.8ZM918.2,855.9h31.9c8.2,0,13.8,5.9,13.8,14.5s-5.6,14.3-13.8,14.3h-31.9v-28.9Z"/>
    <polygon class="st0" points="1093.9 967.9 1149.7 824.5 1114 824.5 1076.7 922.9 1039.4 824.5 1003.6 824.5 1059.2 967.9 1093.9 967.9"/>
    <rect class="st0" x="1165.9" y="824.5" width="34.9" height="143.4"/>
    <polygon class="st0" points="1335.8 937.3 1264.5 937.3 1264.5 909.7 1325.1 909.7 1325.1 879 1264.5 879 1264.5 855 1335.8 855 1335.8 824.5 1229.6 824.5 1229.6 967.9 1335.8 967.9 1335.8 937.3"/>
    <polygon class="st0" points="1425.3 967.9 1456.9 875.4 1488.2 967.9 1524.6 967.9 1564.9 824.5 1529.3 824.5 1504 917.2 1475.9 824.5 1438.1 824.5 1409.7 917.2 1384.6 824.5 1349 824.5 1388.9 967.9 1425.3 967.9"/>
    <polygon class="st0" points="1687.1 937.3 1615.8 937.3 1615.8 909.7 1676.4 909.7 1676.4 879 1615.8 879 1615.8 855 1687.1 855 1687.1 824.5 1580.9 824.5 1580.9 967.9 1687.1 967.9 1687.1 937.3"/>
    <path class="st0" d="M1845.6,896.8c0-42.3-30.5-72.2-74-72.2h-58.4v143.4h58.4c43.6,0,74-29.4,74-71.2ZM1748.1,934.9v-77.4h22.9c22.9,0,38.9,16.1,38.9,39.2s-16,38.2-38.9,38.2h-22.9Z"/>
    <path class="st0" d="M1845.7,1006.9h-297.3c-3,0-5.8,1.2-7.9,3.3l-93.4,93.4v-85.5c0-6.2-5-11.2-11.2-11.2H412.4c-6.2,0-11.2,5-11.2,11.2s5,11.2,11.2,11.2h1012.2v101.4c0,4.5,2.7,8.6,6.9,10.4,1.4.6,2.8.8,4.3.8,2.9,0,5.8-1.1,7.9-3.3l109.3-109.3h292.7c6.2,0,11.2-5,11.2-11.2s-5-11.2-11.2-11.2Z"/>
  </g>
  <g>
    <path class="st1" d="M411.4,1118.7h23.9c8.9,0,15.1,5.2,15.1,12.6s-2.8,8.2-6.9,10.4c5.2,2,8.8,6.2,8.8,11.7,0,8-6.5,13.7-15.7,13.7h-25.1v-48.3ZM434.1,1137.1c2.4,0,4.1-1.7,4.1-4.2s-1.7-4.1-4.1-4.1h-10.9v8.3h10.9ZM434.9,1156.9c3,0,5-2,5-5s-2-5.1-5-5.1h-11.7v10.1h11.7Z"/>
    <path class="st1" d="M470.5,1167l-15.4-39.3h12l9.3,24,9.3-24h11.8l-19.8,51.4h-12l4.8-12.1Z"/>
    <path class="st1" d="M521.4,1151.1h12.1c0,3.5,2.2,6.2,6.6,6.2s5.3-1.4,5.3-4.1-3.7-4.7-8.4-6.8c-7.5-3.3-14.6-6.6-14.6-14.9s7.4-13.6,16.7-13.6,16.4,6.3,16.4,15.6h-11.5c0-3.1-1.9-5.1-4.9-5.1s-4.7,1.6-4.7,3.7,3.1,3.5,9.8,6.2c7.1,2.8,13.4,6.2,13.4,14.6s-7.3,14.7-17.3,14.7-18.9-6.8-18.9-16.6Z"/>
    <path class="st1" d="M564.8,1118.7h11.8v10.6h-11.8v-10.6ZM564.8,1134.2h11.8v32.8h-11.8v-32.8Z"/>
    <path class="st1" d="M583.9,1147.4c0-12,8-20.3,18.3-20.3s8.3,1.6,11.1,4.4v-12.8h11.5v48.3h-10.7v-4.3c-2.9,3.1-6.9,5-11.8,5-10.3,0-18.3-8.2-18.3-20.3ZM604.2,1156.6c5.1,0,8.8-3.8,8.8-9.3s-3.7-9.2-8.8-9.2-8.8,3.7-8.8,9.2,3.6,9.3,8.8,9.3Z"/>
    <path class="st1" d="M631.9,1147.4c0-12.1,8.4-20.4,20.6-20.4s21.8,10.2,20.3,23.4h-29.6c.8,4.5,4.7,7.4,9.2,7.4s6.5-1.6,8-4.5h11.7c-2.7,8.8-10.3,14.3-20.1,14.3s-20.1-8.2-20.1-20.3ZM661.2,1143.1c-1.3-3.7-4.5-6-8.6-6s-7.4,2.4-8.8,6.1h17.4Z"/>
    <path class="st1" d="M677.8,1153h11.2c0,2.9,2.3,4.9,5.8,4.9s4.8-.9,4.8-3-3.1-2.8-7.5-4c-5-1.4-13.3-2.6-13.3-11.5s6-12.5,14.6-12.5,15.4,5.4,15.4,13.2h-10.9c0-1.9-1.6-3.1-3.9-3.1s-3.6,1-3.6,2.7,2.6,2.4,7.3,3.6c6.2,1.7,13,3.7,13,11.8s-6.6,12.6-16.3,12.6-16.5-5.9-16.5-14.7Z"/>
    <path class="st1" d="M721.4,1138.3h-7.1v-10.6h7.1v-9.1h11.7v9.1h7.1v10.6h-7.1v28.7h-11.7v-28.7Z"/>
    <path class="st1" d="M744.5,1127.7h11.2v5.5c1.5-2.6,5.3-5.9,10.4-6.1v11.7c-6,0-9.9,3.8-9.9,9.9v18.4h-11.8v-39.3Z"/>
    <path class="st1" d="M769.7,1147.4c0-12.1,8.4-20.4,20.6-20.4s21.8,10.2,20.3,23.4h-29.6c.8,4.5,4.7,7.4,9.2,7.4s6.5-1.6,8-4.5h11.7c-2.7,8.8-10.3,14.3-20.1,14.3s-20.1-8.2-20.1-20.3ZM798.9,1143.1c-1.3-3.7-4.5-6-8.6-6s-7.4,2.4-8.8,6.1h17.4Z"/>
    <path class="st1" d="M815.6,1147.4c0-12.1,8.4-20.4,20.6-20.4s21.8,10.2,20.3,23.4h-29.6c.8,4.5,4.7,7.4,9.2,7.4s6.5-1.6,8-4.5h11.7c-2.7,8.8-10.3,14.3-20.1,14.3s-20.1-8.2-20.1-20.3ZM844.8,1143.1c-1.3-3.7-4.5-6-8.6-6s-7.4,2.4-8.8,6.1h17.4Z"/>
    <path class="st1" d="M867.4,1138.3h-7.1v-10.6h7.1v-9.1h11.7v9.1h7.1v10.6h-7.1v28.7h-11.7v-28.7Z"/>
  </g>
</svg>