<?xml version="1.0" encoding="UTF-8"?>
<svg id="Layer_2" data-name="Layer 2" xmlns="http://www.w3.org/2000/svg" viewBox="0 0 1772.67 660.41">
  <defs>
    <style>
      .cls-1 {
        fill: #fff;
      }
    </style>
  </defs>
  <g id="Layer_1-2" data-name="Layer 1">
    <g>
      <g>
        <path class="cls-1" d="M352.73,47.61h-30.29s30.29-.01,30.29-.01c6.96,0,13.15.72,18.61,2.13-5.47-1.4-11.65-2.12-18.61-2.12Z"/>
        <path class="cls-1" d="M352.73,181.14c14.1,0,24.85-2.73,32.91-7.83-8.06,5.11-18.81,7.84-32.91,7.84h-30.29s30.29-.01,30.29-.01Z"/>
        <path class="cls-1" d="M385.64,173.31c1.53-.98,2.98-2.04,4.32-3.18-1.34,1.15-2.79,2.21-4.32,3.18Z"/>
        <path class="cls-1" d="M404.11,84.38c-.33-1.22-.67-2.44-1.05-3.6.38,1.18.73,2.37,1.05,3.6Z"/>
        <path class="cls-1" d="M403.51,148.1c.68-2.26,1.26-4.63,1.75-7.09-.48,2.46-1.07,4.83-1.75,7.09Z"/>
        <path class="cls-1" d="M406.54,97.8c-.45-3.91-1.06-7.62-1.87-11.1.81,3.48,1.44,7.19,1.87,11.1Z"/>
        <path class="cls-1" d="M407.45,115c0,9.56-.65,18.28-2.19,26.01,1.53-7.73,2.18-16.44,2.18-26.01,0-5.37-.22-10.45-.68-15.23.47,4.78.69,9.86.69,15.23Z"/>
        <path class="cls-1" d="M174.34,155.49c0-85.32-120.87-54.4-120.87-93.97,0-14.53,14.53-21.65,32.46-21.65,24.73,0,38.33,13.92,43.59,33.7l42.04-15.15C159.2,19.78,132,0,89.65,0,38.64,0,8.04,24.42,8.04,66.78c0,83.77,121.18,46.98,121.18,94.28,0,15.15-11.13,26.28-34.62,26.28-32.46,0-47.62-22.87-51.01-42.04L0,163.22c8.65,40.49,40.81,65.53,88.72,65.53,58.12,0,85.63-31.84,85.63-73.26Z"/>
        <rect class="cls-1" x="197.55" y="3.09" width="46.98" height="222.58"/>
        <path class="cls-1" d="M351.19,3.07h-75.72v212.64c3.8-1,7.7-1.92,11.72-2.72,3.1-.67,6.4-1,10.38-1.18,2.21-.08,4.39-.08,6.52-.08l1.88-.04c17.37-.13,33.24,4.6,47.31,13.94,69.65-.84,103.01-43.28,103.01-110.34S422.3,3.07,351.19,3.07ZM406.25,135.03c-.28,2.05-.6,4.05-.99,5.98-.36,1.85-.79,3.64-1.26,5.37-.16.58-.33,1.15-.49,1.72-.07.26-.15.51-.24.77-.09.32-.2.65-.31.97-.46,1.38-.97,2.73-1.51,4.04-.35.87-.73,1.72-1.13,2.54-.2.42-.4.84-.61,1.24-.62,1.22-1.29,2.4-2.01,3.53-2.15,3.39-4.71,6.38-7.75,8.96-1.34,1.14-2.79,2.2-4.32,3.18-1.01.64-2.06,1.24-3.14,1.8-7.66,3.93-17.43,6.03-29.77,6.03h-30.3V47.61h30.3c3.48,0,6.76.18,9.86.53,2.32.27,4.54.64,6.66,1.09.71.15,1.4.32,2.08.49,5.17,1.34,9.7,3.3,13.64,5.85.46.28.91.59,1.34.89,7.11,5,12.19,12.06,15.6,21.02.31.81.6,1.64.87,2.47.09.26.19.53.27.81.38,1.17.72,2.38,1.05,3.6.2.77.39,1.53.56,2.32.81,3.48,1.42,7.19,1.87,11.1.07.65.14,1.31.21,1.97.12,1.2.21,2.41.31,3.64.09,1.24.16,2.48.21,3.75.11,2.54.16,5.16.16,7.84,0,5.98-.25,11.63-.81,16.9-.12,1.06-.25,2.11-.38,3.13Z"/>
        <polygon class="cls-1" points="643.33 183.62 532.36 183.62 532.36 135.09 636.53 135.09 636.53 93.36 532.36 93.36 532.36 45.13 640.55 45.13 640.55 3.09 485.38 3.09 485.38 225.66 643.33 225.66 643.33 183.62"/>
        <path class="cls-1" d="M754.94,187.33c-32.46,0-47.62-22.87-51.01-42.04l-43.59,17.93c8.65,40.49,40.81,65.53,88.72,65.53,58.11,0,85.63-31.84,85.63-73.26,0-85.32-120.87-54.4-120.87-93.97,0-14.53,14.53-21.65,32.46-21.65,24.73,0,38.33,13.92,43.59,33.7l42.04-15.15c-12.36-38.64-39.57-58.42-81.92-58.42-51.01,0-81.61,24.42-81.61,66.78,0,83.77,121.18,46.98,121.18,94.28,0,15.15-11.13,26.28-34.62,26.28Z"/>
        <polygon class="cls-1" points="912 225.66 958.99 225.66 958.99 45.13 1019.57 45.13 1019.57 3.09 851.41 3.09 851.41 45.13 912 45.13 912 225.66"/>
        <path class="cls-1" d="M1210.32,196.91l-10.5-51.31c-3.1-15.16-14.23-24.12-32.15-26.3,22.27-7.7,38.93-23.76,38.93-55.33,0-34.62-22.22-60.9-56.84-60.9h-104.18v222.61h46.96v-81.63h41.14c13.61,0,22.86,4.31,25.66,18.26l9.55,45.41c1.26,6.83,3.44,13.61,8.37,17.96h44.49c-5.57-6.5-9.25-17.63-11.43-28.77ZM1164.49,74.07c-.01.36-.04.73-.07,1.09-.05.57-.11,1.12-.19,1.66-.07.55-.15,1.09-.26,1.62-.09.49-.19.99-.31,1.47-.02.11-.06.21-.08.32-.09.42-.21.84-.34,1.25,0,.04-.01.08-.02.12-.13.47-.28.93-.45,1.38,0,.02-.01.05-.02.08-.14.39-.28.78-.45,1.17-.05.13-.11.27-.16.4-.16.41-.34.81-.54,1.2-.15.35-.33.69-.52,1.04-.08.16-.18.33-.26.49-.13.21-.25.42-.38.64-.14.24-.28.47-.44.71-.05.08-.09.16-.15.24-.2.32-.42.64-.65.94-.01.04-.04.06-.06.08-.25.35-.52.71-.79,1.04-.58.72-1.19,1.4-1.84,2.06-1.04,1.06-2.18,2.02-3.4,2.9-.29.22-.59.42-.88.61-.54.38-1.09.72-1.67,1.04-.45.27-.89.51-1.37.74,0,0,0,.01-.01,0-.46.25-.94.47-1.42.67-.48.24-.98.44-1.48.61-.51.21-1.01.4-1.53.55-.52.19-1.05.35-1.59.49-.54.16-1.08.31-1.65.42-.51.14-1.02.25-1.54.34-.16.05-.34.08-.51.09-.46.11-.93.18-1.4.24-2.37.38-4.86.55-7.49.55h-38.04v-61.83h35.87c1.31,0,2.6.04,3.86.11.05-.01.08,0,.12,0,.62.02,1.24.07,1.85.13.62.04,1.25.09,1.86.18,1.22.13,2.41.31,3.58.52.51.08,1.01.19,1.52.29.08.01.16.04.25.06,1.08.24,2.14.51,3.15.82.07.01.15.04.22.07.49.14.98.31,1.45.47.52.18,1.02.36,1.52.56.99.41,1.95.85,2.86,1.34.92.48,1.8,1.01,2.64,1.59,1.26.86,2.42,1.82,3.48,2.88.46.46.89.93,1.31,1.42.22.26.45.52.65.79.04.05.08.09.12.15.28.36.56.74.81,1.13.01.01.02.02.02.04.25.34.47.69.68,1.06.09.15.19.31.27.46.14.25.28.49.41.75.12.21.22.42.32.64.09.19.19.38.27.58.14.26.26.53.36.8.45,1.05.84,2.14,1.17,3.31.14.45.26.92.36,1.39.13.51.25,1.04.33,1.58.04.13.06.26.08.4.09.48.18.98.24,1.48.02.11.04.22.05.33.07.56.14,1.14.19,1.73v.07c.06.59.09,1.2.12,1.81.05.74.06,1.51.06,2.28s-.02,1.59-.08,2.35Z"/>
        <polygon class="cls-1" points="1402 183.62 1291.02 183.62 1291.02 135.09 1395.2 135.09 1395.2 93.36 1291.02 93.36 1291.02 45.13 1399.22 45.13 1399.22 3.09 1244.04 3.09 1244.04 225.66 1402 225.66 1402 183.62"/>
        <polygon class="cls-1" points="1584.71 183.62 1473.73 183.62 1473.73 135.09 1577.91 135.09 1577.91 93.36 1473.73 93.36 1473.73 45.13 1581.93 45.13 1581.93 3.09 1426.75 3.09 1426.75 225.66 1584.71 225.66 1584.71 183.62"/>
        <polygon class="cls-1" points="1604.51 3.09 1604.51 45.13 1665.1 45.13 1665.1 225.66 1712.09 225.66 1712.09 45.13 1772.67 45.13 1772.67 3.09 1604.51 3.09"/>
        <path class="cls-1" d="M407.48,400.93c-.75,8.37-6.95,12.77-13.35,15.91l-32.19,15.57-33.7,19.13c-5.99,3.39-12.39,3.6-18.54,5.65l-24.61,8.12c-16.87,5.57-34.32,5.94-52.16,7.66-25.49,2.39-50.36,1.42-75.22-4.1-12.14-2.72-23.11-7.24-33.32-13.94-11.72-7.7-19.21-18.75-23.94-31.69-2.93-8-3.1-15.11-1-23.27,1.51-5.69.8-12.93,2.76-18.54,6.78-19.42,25.16-51.11,38.93-65.47,40.35-41.94,78.11-76.43,134.32-91.59,4.35-1.17,8.79-2.26,13.4-3.18,5.78-1.21,11.55-1.09,17.2-1.13,10.59-.08,20.51,1.8,29.72,5.61,5.57,2.3,10.88,5.27,15.95,9,10.34,7.58,15.74,19.38,11.34,20.18-4.6.92-7.12-11.72-13.73-8.16l9.33,8.83c.88.84-.13,4.14-1,5.4-.8,1.05-2.6.38-4.73-.5l1.42,4.65-6.4-5.78,2.43,7.66c-5.36-.04-8.29-2.97-11.34-6.66-20.47-24.82-56.22-23.15-82.59-10.34-31.06,15.07-38.43,18.12-65.42,41.31-16.91,14.52-54.83,54.16-61.53,76.47l61.82-9.13c27.71-4.1,54.96-7.37,83.01-7.07l1.38,2.39,19.42-.63-8.75,2.51c16.16,1.05,27.29-2.34,41.27-.25-7.66,3.39-14.94-1.38-22.23,3.81l28.04-.59-10.76,1.59,11.22,3.1c-22.27,5.19-44.41,5.11-67.18,7.03,5.94,2.89,11.59-1.42,16.58,2.47-24.4,1.97-22.02-2.3-47.93,1.05l-25.91,3.35c4.73,2.18,9.59.46,14.61.04,14.52-1.26,21.22-3.93,31.77-2.72l-17.41,2.97-13.69,1.72-87.86,15.07-14.36,2.18c-1.59,22.73,22.39,38.22,41.77,42.99,20.55,5.11,40.85,6.53,62.2,6.74,22.56.21,44.71-2.34,66.72-7.37,1.97-.42,5.9,1.72,8.33-.17,3.6-2.8,8.33-.88,11.64-1.76,10.3-2.8,46.5-26.16,55.3-26.54l14.73-.71,24.24-8.87Z"/>
        <path class="cls-1" d="M1395.17,435.51c-22.23,12.85-51.44,16.32-76.85,15.53-22.27-.71-43.57-6.95-62.49-18.17-10.88-6.45-19.05-14.99-25.45-25.16-13.18-20.93-14.44-43.62-6.53-66.72,1.84-5.27,2.05-7.87,6.07-11.93,8.16-8.25,14.61-17.83,24.28-25.2,37.88-28.88,83.3-46.17,130.85-49.31,7.62-.5,12.35,2.68,18.08,5.78,5.11,2.76,10,4.69,13.18,9.63,3.27,5.11,2.51,9.46-.75,14.23-1.05,1.55-1.34,5.69-2.85,6.66-2.89,1.84-14.61,4.94-16.66.71l-4.86-10c-36-2.85-95.81,20.8-123.4,47.05,7.74,2.85,15.7,2.8,23.86,3.39l62.2,4.52,47.55,3.06-21.1,2.26,25.62,2.09c4.56.38,9.17,4.39,13.81,7.41l-7.83,5.57c-16.87,2.6-33.11,4.31-50.19,3.52l-51.24-2.34c-4.31-.17-8.54.88-12.01.96l-47.89.96c-1.72,15.78,2.59,30.35,13.85,40.77,12.01,11.05,26.12,17.79,42.44,20.22,22.85,3.43,57.05,3.52,77.65-8.54,8.79-5.11,18.42-12.39,26.16-18.29.54-.42,2.8-.92,3.01-.38,1.38,4.31.84-.17.5,5.57-.13,2.34,5.27.21,7.7,3.93,4.6,7.03-19.51,28.04-26.75,32.23Z"/>
        <path class="cls-1" d="M1220.54,281.72c-6.82,11.51-10.51,24.65-13.14,37.88l-12.68,63.37c-2.72,13.65-6.11,26.5-11.8,38.93-4.98,10.84-14.27,16.32-25.28,19.92-4.48,1.46-8.66,4.19-13.77,3.14-6.99-1.51-12.89-4.65-18.12-9.38-28.8-26.16-42.36-59.98-57.47-96.9-4.77,28.21-10.84,54.25-18.08,81-2.13,7.83-1.8,15.78-6.95,22.6-2.01,1.3-6.15,3.85-8.33,4.39l-8.25,2.01c-8.71-1.13-11.22-10-9.75-17.79,2.93-15.45,3.56-30.56,5.06-46.29,2.72-28.09,8.75-54.92,21.1-80.2,2.93-6.03,6.61-11.22,11.93-15.32,2.22-1.67,8.12-2.39,10.34-.88,7.33,5.11,17.92-3.35,29.51,35.04,8.25,27.33,19.76,53.08,36.71,76.01,4.94,6.7,11.18,13.31,19.09,15.15,6.53-6.19,10.21-15.03,12.18-23.61l12.31-53.91c3.01-13.23,17.75-81.16,33.24-79.45,1.84.21,4.77,3.1,6.66,4.02,4.14.96,12.43-.38,14.19,4.65,2.01,6.61-5.82,10.84-8.66,15.61Z"/>
        <path class="cls-1" d="M1653.18,366.36l-7.49-16.03c-4.31-9.25-16.83-33.95-23.78-40.35,4.98,10.33,14.1,17.79,14.82,30.84-18.88-40.39-42.36-61.36-83.09-78.85-21.35-9.17-43.03-12.85-66.17-9.97-14.87,1.85-26.95,13.95-24.61,29.21.84,5.53,4.77,9.84,9.33,10.22l1.29,15.11-5.27,46c-3.85,34.03-8.55,70.12-1.05,103.39,1.26,5.57,6.65,10.58,11.97,7.83,3.23-1.67,3.73-4.57,3.18-8.04l4.48,4.06c.67.59,2.21,1.18,2.97,1,.59-.12,1.64-1.97,1.64-2.59l-.16-14.44c9.88,2.8,18.46,2.77,27.96,1.8,37.93-3.9,91.38-12.51,121.26-37.63,10.68-9,19.42-27.17,12.72-41.56ZM1624.76,385.82c-10.25,7.5-21.81,12.05-33.83,16.54-20.29,7.58-65.63,16.95-85.97,17.21l-15.23.16c.41-15.95,1.29-31.52,3.05-47.51l7.45-67.78c.75-6.91-3.01-15.02-8.32-17.11-1.05-.38-4.36-.46-4.44.46l-.38,4.36-2.85,18.7c-.05-8.45.51-16.03,1.05-24.78.29-4.77,7.53-7.83,12.18-8.53,28.04-4.48,51.27,5.81,74.71,19.33,27.71,16,51.19,43.87,57.43,76.14.93,4.94-.67,9.76-4.85,12.81Z"/>
        <path class="cls-1" d="M933.93,371.72c-6.99-9.79-6.82-2.98-17.87-6.07-4.36-1.25-7.04-1.84-11.72-2.51l.8-50.78c.12-7.74-.38-16.11-2.93-22.93-3.1-8.46-11.97-10.38-19.42-12.44-6.24-1.67-12.14-2.93-18.21,1.31-6.86,4.85-12.43,11.51-17.42,18.83-15.74,23.06-28.76,47.08-42.02,71.7l-5.14,9.55-19.5,32.95c-4.86,8.2-7.96,16.74-4.99,26.33l4.32,5.31,4.44-1.21c3.77-.46,8.29-1.8,11.38-3.13,3.81,2.97,11.68-9.63,12.51-11.35l17.7-35.21c20.3-1.42,40.07-1.67,59.87-.41l-9.17,1.71c.59,19.52,7.99,39.51,18.92,55.22,1.13,1.59,5.74,3.06,7.04,3.31,3.77-1.72,6.94-2.01,11.89-2.64,2.18-2.31,5.98-6.83,7.75-9.17,1.59-6.19-3.78-9.71-6.74-14.15-6.07-9-7.91-21.22-9.55-31.6,5.86-1.34,10.22-3.8,14.52-4.68l8.66-1.8,13.95-6.4c-.09-2.47-.26-4.81.95-5.4l6.66-3.14-16.67-1.17ZM875.37,363.3l-30.64-1.67,30.85-51.45-.21,53.12Z"/>
        <path class="cls-1" d="M660.44,267.11c-9.22-8.99-19.47-15.23-32.32-17.95-12.22-2.6-25.15-6.16-37.93-3.9-9.37,1.62-23.48,8.2-31.51,14.18-8.63,6.5-14.36,16.03-18.01,26.41-8.2,23.53-12.43,48.01-14.56,72.92-1.55,17.83-1.67,55.76,11.84,68.52,3.98-.92,8.79-1.97,12.15-3.31,9.79-3.88,11.97-13.18,11.89-22.76-.13-10.63.28-20.93,1.17-31.39,9.63-1.34,17.16-2.42,25.41-5.65,24.65-9.59,47.26-22.94,65.75-41.66,9.97-9.99,14.15-21.76,14.03-35.57-.08-8.17-2.1-14.2-7.91-19.85ZM641.35,290.22c-10.55,24.24-47.47,46.64-73.38,54.33,2.88-21.09,4.31-40.94,5.73-61.54,2.81-8.62,14.49-13.3,22.81-13.77,15.54-2.34,30.06,1.31,42.28,10.56,3.18,2.38,3.39,6.6,2.55,10.42Z"/>
        <path class="cls-1" d="M660.44,267.11c-9.22-8.99-19.47-15.23-32.32-17.95-12.22-2.6-25.15-6.16-37.93-3.9-9.37,1.62-23.48,8.2-31.51,14.18-8.63,6.5-14.36,16.03-18.01,26.41-8.2,23.53-12.43,48.01-14.56,72.92-1.55,17.83-1.67,55.76,11.84,68.52,3.98-.92,8.79-1.97,12.15-3.31,9.79-3.88,11.97-13.18,11.89-22.76-.13-10.63.28-20.93,1.17-31.39,9.63-1.34,17.16-2.42,25.41-5.65,24.65-9.59,47.26-22.94,65.75-41.66,9.97-9.99,14.15-21.76,14.03-35.57-.08-8.17-2.1-14.2-7.91-19.85ZM641.35,290.22c-10.55,24.24-47.47,46.64-73.38,54.33,2.88-21.09,4.31-40.94,5.73-61.54,2.81-8.62,14.49-13.3,22.81-13.77,15.54-2.34,30.06,1.31,42.28,10.56,3.18,2.38,3.39,6.6,2.55,10.42Z"/>
        <path class="cls-1" d="M510.04,466.95l-8.16-3.01,2.26,4.06-3.43-.88c-.63-.17.25,3.39-.42,3.52-4.81.96-13.44-4.56-16.41-8.96l-35.2-52.49c-4.6,8.37-.71,16.03-7.53,25.74-.59.84-3.14,2.13-3.98,1.63l-3.68-2.22-4.35,5.23-6.32-3.18c-.42-1.59-3.43-6.53-3.43-9.04,0-10.09,1.26-22.27,2.18-33.03.63-7.12,2.93-14.99,2.3-21.72l-19.59-32.06c-5.73-9.46-18.84-36.79-15.7-47.22l4.35,1.3c.63.21,1.21-1.59,1.72-2.47,3.52.63,6.7.38,10.09-2.34l10.63,4.1c5.27,13.19,10.21,25.91,18.67,38.3,4.14-11.76,15.28-54.75,29.13-55.34v3.39c0,.84,3.18,1.13,3.85.67l3.85-2.8c3.39,1.42,5.65,2.26,9.75,3.56,2.01.67,2.34,3.93,1.67,6.7-2.47,5.02-5.9,9.63-7.95,14.86-8.16,21.05-14.06,42.32-19.34,64.13,19.42,28.51,37,56.38,54.16,85.56,2.64,4.48,2.51,9.46.88,14.02Z"/>
        <path class="cls-1" d="M777.34,394.2l-7.74,8.41c-4.6,4.94-11.47,8.58-18.17,10.42-27.5,7.66-56.63,13.81-85.18,13.65-15.57-.08-27.71-12.26-27.96-28.34-.13-11.34,3.47-22.23,7.91-32.86,11.51-27.46,25.99-52.45,41.23-78.02,2.39-4.06,6.91-9.21,11.01-8.12.84.21,2.22,3.1,2.97,2.89,2.43-.75,7.16-3.56,14.65,1.72,3.01,2.18,1.76,7.53,0,10.46-12.98,21.47-25.2,42.49-36.38,64.92-3.18,6.4-14.9,33.61-10.21,37.5,7.07,5.86,60.65-5.15,72.5-7.28l16.91-3.06,1.38,3.35c.34.88,2.64.29,4.44.17l9.54-.8c1.55-.13,3.98,3.81,3.1,4.98Z"/>
        <path class="cls-1" d="M958.84,371.34c-.12-.51-.33-.97-.54-1.42l-1.72,8.83c1.85-1.92,2.77-4.68,2.26-7.4ZM1008.59,307.71c-.01-.15-.02-.29-.05-.44-.04-.21-.08-.4-.12-.59-.05-.16-.09-.32-.15-.46-.07-.19-.14-.35-.24-.52-.08-.16-.18-.33-.28-.48-.09-.14-.21-.29-.33-.42-.11-.14-.24-.27-.36-.4-.33-.31-.69-.59-1.09-.84-.11-.07-.22-.14-.34-.21-1.58-.93-3.53-1.58-5.2-2.68-.2-.13-.39-.27-.58-.41-.18-.12-.34-.26-.51-.4-.12-.11-.24-.21-.34-.33-.4-.4-.75-.85-1.06-1.35l-6.83,2.34-3.85,10.09.02-.12v-.02l1.4-9,.02-.19.56-3.64c-.09-.02-.2-.05-.33-.08-1.2-.22-3.53-.47-4.63-.29-.09.01-.19.05-.27.08-.09.04-.19.08-.27.14-.09.06-.19.13-.28.21-.09.08-.18.18-.27.27-.15.15-.29.33-.45.54-.14.2-.28.42-.44.67-.07.13-.14.26-.21.39-.18.33-.35.71-.53,1.09-.08.2-.18.41-.27.62-.16.38-.32.78-.47,1.2-.09.28-.2.58-.31.87-.34,1-.68,2.08-1,3.24-.09.34-.2.69-.29,1.05-.06.24-.13.48-.19.72-.13.48-.26.98-.38,1.47-.07.26-.13.52-.19.76-.12.51-.25,1.02-.36,1.53-.06.25-.12.51-.18.78-.11.46-.21.93-.32,1.4-.07.32-.14.65-.2.97-.12.52-.22,1.05-.34,1.57-.11.54-.21,1.07-.32,1.6-.21,1.05-.41,2.08-.61,3.11-.14.77-.28,1.53-.42,2.27-.18.99-.35,1.94-.52,2.86-.09.49-.18.99-.26,1.46-.07.36-.13.73-.19,1.08-.36,2.07-.67,3.79-.89,4.96-.02.12-.05.22-.07.33l-10.88,55.09c-1.91,9.64-2.7,19.33-2.39,28.92.02.65.05,1.29.07,1.93.08,1.92.21,3.85.39,5.76.06.65.12,1.28.19,1.92.05.49.11.98.16,1.47.06.48.12.97.18,1.45.28,2.21.62,4.41,1.01,6.62.24,1.26.48,2.51.74,3.77.13.64.27,1.26.41,1.89.15.62.29,1.25.45,1.87.22.98.64,1.77,1.15,2.41.13.15.27.31.42.45.29.28.61.54.95.75.26.16.53.31.81.42.14.07.28.14.44.19.68.27,1.42.45,2.18.55.21.04.42.06.62.07.19.02.38.04.56.05,1.59.09,3.19-.07,4.52-.32.35-.07.68-.14.99-.21.19-.04.38-.08.54-.13.12-.02.22-.06.33-.09.25-.07.47-.14.66-.21.08-.04.16-.06.22-.08.08-.04.15-.07.21-.11.06-.02.09-.06.13-.08.02-.01.04-.02.05-.04.01-.01.02-.01.02-.02l1.66-4.31h.01s4.31,1.33,4.31,1.33c.53.16,1.01.12,1.44-.09.66-.34,1.2-1.12,1.62-2.2.07-.16.14-.34.2-.53.09-.26.18-.52.25-.79.07-.28.15-.56.22-.87.13-.6.26-1.24.36-1.92.06-.34.11-.69.15-1.05.01-.01.01-.04.01-.06.05-.34.08-.68.13-1.04.13-1.12.22-2.3.29-3.51.01-.28.04-.58.05-.87.02-.31.04-.61.05-.92.01-.22.01-.45.02-.67.04-.84.06-1.68.07-2.53.01-.6.02-1.2.02-1.8.06-5.58-.15-10.76-.09-12.89,0-.09.01-.16.01-.25.02-.55.05-1.11.07-1.66.09-1.66.21-3.3.36-4.92.08-.88.18-1.77.28-2.65.04-.29.07-.58.11-.86.08-.69.18-1.39.27-2.07.06-.46.13-.92.2-1.37.19-1.27.39-2.53.6-3.79.12-.72.25-1.42.38-2.14.12-.71.25-1.41.39-2.12.04-.25.08-.48.13-.72.18-.97.36-1.94.55-2.92.05-.24.09-.48.14-.72.47-2.41.95-4.86,1.45-7.35.04-.16.07-.33.11-.49.07-.33.14-.67.2-1.01l9.03-46.36,4.37-22.42c.14-.73.21-1.39.21-1.98,0-.2-.01-.39-.02-.56Z"/>
        <path class="cls-1" d="M956.58,378.75l1.72-8.83c.21.46.42.92.54,1.42.5,2.72-.42,5.48-2.26,7.41Z"/>
        <path class="cls-1" d="M997.93,298.16l-6.84,2.34-3.85,10.1,2.05-12.98c-1.03-.24-3.76-.57-4.96-.36-4.77.83-9.17,30.55-10.49,37.24l-10.88,55.07c-3.69,18.7-3.18,37.48,1.19,55.62,1.86,7.71,14.58,4.18,14.81,3.58l1.68-4.3,4.31,1.34c6.47,2.01,4.62-26.9,4.81-32.01.44-11.81,2.89-22.74,5.23-34.76l13.41-68.8c1.68-8.6-7.24-6.66-10.47-12.09Z"/>
      </g>
      <g>
        <path class="cls-1" d="M1452.98,502.16l-7.26-3.65,7.02-2.2c-2.24-1.66-4.68-2.85-6.65-2.71-24.53,1.72-60.48-2.94-84.82-1.67,18.84,4.96,46.02-.21,67.27,6.87l-61.76-.41-20.55.07-20.58.35-28.59.76-55.51,2.61-46.94,1.85c-18.47.73-36.3,2.32-54.97,3.73-23.02,1.75-45.35,2.68-68,5.27l-35.01,4-40.11,5.07-124.68,18.66-17.62,2.98-28.17,4.99c-25.39,4.51-49.68,9.76-74.8,15.74-7.77,1.85-14.96,2.97-23.28,4.52,6.33-5.76,26.81-5.83,36.47-13.54-8.58-.27-83.77,18.48-77.43,25.61l4.21,4.74-6.67-.81c-.07,4.03,1.09,8.99,3.96,12.25,2.51,2.86,7.69,2.92,11.91,3.87,7.78,1.74,13.96.2,21.62-.49l50.84-4.6c7.57-.69,14.57-1.29,22.01-1.74l77.27-4.6c54.3-3.24,165.07.67,218.53,11.06,3,.58,7.25,2.94,8.82,4.31l-8.89,7.6c-7.96,2.12-15.64,3.92-23.78,5.34l-85.14,14.88c-8.15,1.42-16.29,2.77-24.18,4.92l-79.45,21.75c16.27,3.77,36.7-6.14,60.23-9.48l42.2-5.99,58.03-9.16c9.15-1.45,17.23-1.87,26.55-1.72,14.07.22,27.99-3.8,42.07-5.41,17.82-2.05,31.05-3.67,33.79-22.29-12.3-1.01-11.65-13.48-31.24-15.15-7.49-.64-14.69-2.38-22.19-3.46-18.72-2.67-37.12-4.43-56.02-5.76l-29.43-2.06-52.98-2.57-19.45-.27-20.22.14-41.01.28-16.26-.18,10.45-4.08-20.98.2-39.48,1.21c-11.31.35-21.49,2.95-34.09.53l61.23-14.29,21.49-4.38,20.27-3.55,21.78-3.45,26.14-4.52,22.96-3.21,49.64-7.03,23.38-2.84,31.24-3.52,42.49-4.41c15.67-1.64,31-2.54,46.78-3.38l60.63-3.23,32.1.52,56.25,2.19,79.56,2.62c23.68.78,59.94,1.52,82.23-1.66,7.3-1.05,14.45-3.35,15.66-11.49-2.31-2.32-6.12-5.17-8.92-6.58ZM1307.78,516.37l-29.63-1.66c6.6-1.49,13.28-1.13,20.61-1.08l16.21.13c5.32.05,11.43-.77,16.82-.28l14.24,2.39c-12.35,1.77-25.04,1.25-38.25.51Z"/>
        <path class="cls-1" d="M861.11,516.84c-4.55-8.58-11.87-1.01-18.56-4.83,18.46-4.11,41.68-2.2,60.13-3.23l29.73-1.66,19.22-.3c22.28-.35,43.91-2.46,66.1-2.14l12.96.18,23.11.36c-6.46,4.12-13.17,1.39-19.89,1.84l-36.64,2.46-27.85.53-27.92.78-19.1.96-15.31-.29-43.27,4.08c9.24,1.56,18.22,1.09,28.1.53l30.11-1.7,24.14-.55,31.85-.83c9.68-.25,18.9,1.3,28.49.86l39.35-1.77c11.14-.5,21.34-1.14,32.54-2.2l50.9-4.83c-19-3.03-37.91-1.99-57.65-2.32l-36.61-.62-19.27.23-42.34.96-44.12,1.16-27.8,1.04c-11.47.43-22.57,1.97-34.01,1.44-19-.89-37.65,2.92-56.86,3.23-10.39.17-20.26.27-30.74,1.18-8.45.73-16.48.19-24.82.67l-59.58,3.44-106.59,3.12-39.09-.26h-20.88c6.96-3.16,14.4-1.47,22.25-1.58l38.05-.55,54.69-2.19c15.45-.62,30.4-.21,45.03-3.7l-58.81,1.58-53.28.92c-63.65,1.1-144.86-4.87-208.23-13.71-17.23-2.4-34.57-3.95-51.06-1.48-.23,2.22-.14,4.95-1.11,5.17l-3.3.75c-.69.16-2.74.92-2.38,1.51l2.13,3.45c5.34,8.66-7.01,5.62,10.95,16.57.74-.73,1.78-2.54,2.22-2.19l2.6,2.01c1.11.86,4.77,1.69,6.22,1.34,1.45-.35,2.09-3.32,3.06-5.73,3.51-.69,9.49-1.12,13.85-.54,30.74,4.13,60.23,7.19,91.41,9.23,32.32,2.12,63.32,4.59,95.7,4.06,8.02-.13,15.62-.51,23.64-.18,21.2.87,41.44-.04,62.66-1.05l16.47-.78,109.15-7.15,110.26-7.28Z"/>
        <path class="cls-1" d="M878.64,572.77c7.07,1.66,35.76.8,45.18-.13-11.99-1.89-33.89-1.95-45.18.13Z"/>
      </g>
    </g>
  </g>
</svg>