<?xml version="1.0" encoding="UTF-8"?>
<svg id="Layer_1" xmlns="http://www.w3.org/2000/svg" version="1.1" viewBox="26.4 676 1947.01 648.01">
  <!-- Generator: Adobe Illustrator 30.3.0, SVG Export Plug-In . SVG Version: 2.1.3 Build 182)  -->
  <defs>
    <style>
      .st0 {
        fill: #fff;
      }
    </style>
  </defs>
  <path class="st0" d="M88.1,944.3c.6,3.9,4.6,7.9,11.9,11.9,7.3,4.1,17.1,7.5,29.4,10.2,12.3,2.7,25.5,4,39.7,4,26.2,0,47.2-5.4,62.7-16.3s23.4-26,23.4-45.3-3.6-22.9-10.8-32.4c-7.2-9.6-16-17.8-26.3-24.7-10.3-6.9-23.8-14.7-40.3-23.6-12.7-6.9-22.8-12.6-30.3-17.3-7.5-4.6-13.8-9.8-18.7-15.6-5-5.8-7.4-11.9-7.4-18.4s3.9-14.9,11.6-20.2,19.3-7.9,34.5-7.9,19.4,2,27.3,6c7.8,4,14.3,8.4,19.2,13.2,4.9,4.8,10.2,10.9,15.8,18.2,2.8,3.7,5,6.3,6.5,7.9,1.5,1.6,2.8,2.4,3.9,2.4,2.2,0,3.2-1,3.2-2.9s-2.4-15.4-7.1-41c-.9-5-7.1-9.2-18.9-12.9-11.7-3.7-26.5-5.5-44.4-5.5s-34.2,2.4-47.1,7.1c-12.9,4.7-22.7,11.2-29.4,19.4-6.7,8.2-10,17.4-10,27.8s3.2,19.7,9.7,28.2c6.5,8.5,14.3,15.9,23.5,22.1,9.3,6.2,21.7,13.8,37.4,22.6,14,7.7,25.1,14.4,33.2,19.8,8.2,5.5,15,11.7,20.6,18.6,5.6,6.9,8.4,14.3,8.4,22.3s-3.9,17.3-11.8,23.6c-7.8,6.2-19.3,9.4-34.4,9.4s-24.7-2.7-34.8-8.1c-10.1-5.4-18.4-11.4-24.7-18.1-6.3-6.7-12.8-14.4-19.2-23.2-2.1-3-4.1-5.6-5.8-7.7s-3.1-3.2-4.2-3.2c-1.9,0-2.9,1.1-2.9,3.2s1.2,11.1,3.6,26.1l2.9,20.3Z"/>
  <path class="st0" d="M293.3,775c6,0,11.2-2.2,15.6-6.6,4.4-4.4,6.6-9.5,6.6-15.3s-2.2-11.2-6.6-15.5c-4.4-4.3-9.6-6.5-15.6-6.5s-11.6,2.2-16,6.5c-4.4,4.3-6.6,9.5-6.6,15.5s2.2,10.9,6.6,15.3c4.4,4.4,9.7,6.6,16,6.6Z"/>
  <path class="st0" d="M266.5,966.6c1.9,0,5.1-.2,9.4-.6,6-.4,11.6-.6,16.8-.6h2.3c5.2,0,10.8.2,16.8.6,4.3.4,7.4.6,9.3.6,3.7,0,5.5-1.6,5.5-4.8s-1.9-5.3-5.8-8.1c-3.2-2.6-5.7-5.1-7.3-7.4-1.6-2.4-2.4-5.8-2.4-10.3v-130.3c0-2.6-.4-4.4-1.1-5.3-.8-1-2-1.5-3.7-1.5s-5.5,1.1-9.3,3.2c-.7.2-2.9,1.2-6.6,2.9-3.8,1.7-8.4,2.8-14,3.2-7.5,1.1-11.3,3.2-11.3,6.5s1.2,3.1,3.5,5.5c2.4,2.4,4.4,5.2,6,8.6,1.6,3.3,2.4,8.4,2.4,15.3v92c0,4.5-.9,8-2.6,10.3-1.7,2.4-4.2,4.8-7.4,7.4-3.9,2.8-5.8,5.5-5.8,8.1s1.8,4.8,5.5,4.8Z"/>
  <path class="st0" d="M369,961.9c9.3,5.7,19.2,8.6,29.5,8.6s14.5-1.8,20.8-5.5c6.3-3.6,10.7-7.7,13.1-12.3h1.6v11c0,2.6.3,4.4,1,5.3.6,1,1.8,1.5,3.6,1.5,2.8,0,7.6-.5,14.5-1.6,8.4-1.3,13.7-2.1,15.8-2.3,4.1-.4,6.9-1,8.6-1.8,1.6-.8,2.4-1.9,2.4-3.4s-1.1-3.6-3.4-6.1c-2.3-2.6-4.2-6-5.8-10.2-1.6-4.2-2.4-10.8-2.4-19.8v-184.2c0-2.4-.3-4-1-5-.6-1-1.8-1.4-3.6-1.4s-5,1-9.7,2.9c-3.9,1.7-7.3,3.1-10.3,4-3,1-6.5,1.6-10.3,1.8-7.5,1.1-11.3,3.1-11.3,6.1s1.2,3,3.6,5.2c2.4,2.1,4.4,4.8,6,8.1,1.6,3.2,2.4,8.1,2.4,14.5v34.2h-1.6c-4.5-4.5-9.3-7.8-14.4-9.7-5.1-1.9-11.1-2.9-18.2-2.9s-19,2.9-28.7,8.7c-9.7,5.8-17.8,15.3-24.4,28.6-6.6,13.2-9.8,30.5-9.8,51.8s3,34.6,9,46.9c6,12.4,13.7,21.4,23.1,27.1ZM384.2,831.1c6.6-11.6,15.3-17.4,26.3-17.4s10.4,1.8,14.5,5.5c4.1,3.7,7,8.6,8.7,14.8h.3v83.6c-1.5,11.4-4.7,20.6-9.5,27.6-4.8,7-10.7,10.5-17.6,10.5-9.9,0-17.8-5.6-23.7-16.9-5.9-11.3-8.9-28.3-8.9-51.1s3.3-44.9,9.8-56.5Z"/>
  <path class="st0" d="M530,961c11.9,6.3,24.9,9.5,38.9,9.5,26,0,45.7-10.8,59-32.3,1.1-1.7,1.6-3.1,1.6-4.2s-.6-2.3-1.9-2.3-3.1,1-5.5,2.9c-10.5,12.3-25,18.4-43.2,18.4s-26.7-5.6-36.1-16.8c-9.5-11.2-14.6-27.8-15.5-49.7h51.9c17.9,0,31-3.1,39.5-9.4,8.5-6.2,12.8-15.7,12.8-28.4s-2.7-18.3-8.1-25.8c-5.4-7.5-12.7-13.4-22.1-17.7-9.3-4.3-19.8-6.5-31.4-6.5s-27.3,3.1-39.4,9.2c-12,6.1-21.8,15.6-29.2,28.6s-11.1,29.2-11.1,48.7,3.7,34.1,11,46.9c7.3,12.8,16.9,22.4,28.9,28.7ZM539.5,829.6c7.5-9.8,17.4-14.7,29.7-14.7s15.5,3.1,20.8,9.2c5.3,6.1,7.9,14.3,7.9,24.4,0,18.5-10.3,27.7-31,27.7h-39.7c.6-21.3,4.7-36.8,12.3-46.6Z"/>
  <path class="st0" d="M718.6,806.2c7.3,0,12.8,1.6,16.4,4.8,3.7,3.2,7.3,8.1,11,14.5,2.6,4.5,4.8,7.8,6.8,10,1.9,2.2,4.7,3.2,8.4,3.2s6.2-1.1,8.2-3.2c2-2.1,3.1-5,3.1-8.7s-2.2-9.2-6.6-13.5-10.7-7.8-18.7-10.5c-8.1-2.7-17.3-4-27.6-4s-18.4,1.6-27.6,4.7c-9.1,3.1-16.8,7.9-22.9,14.4-6.1,6.5-9.2,14.5-9.2,24.2s3.1,16,9.2,22.1c6.1,6.1,15.1,13.1,26.9,20.8,8.4,5.6,15,10.3,19.9,14.2,4.8,3.9,8.9,8.4,12.3,13.5,3.3,5.2,5,11,5,17.4,0,10.5-3.3,18.4-10,23.7-6.7,5.3-14.5,7.9-23.6,7.9s-16.6-2.3-21.3-6.8c-4.7-4.5-9.3-10.9-13.6-19-2.6-5.2-4.9-8.9-6.9-11.3-2-2.4-4.6-3.5-7.6-3.5-4.3,0-7.6,1.3-10,3.9s-3.5,6-3.5,10.3,2.4,11.1,7.1,16.6c4.7,5.5,11.3,9.9,19.8,13.4,8.5,3.4,18.1,5.2,28.9,5.2s24.3-2.1,34.8-6.3c10.5-4.2,18.9-10.2,25-18.1,6.1-7.9,9.2-16.9,9.2-27.3s-1.8-15.4-5.5-21.6c-3.7-6.2-8.2-11.5-13.5-15.8-5.4-4.3-12.4-9.2-21-14.8-10.8-7.1-18.7-13.3-23.9-18.6-5.2-5.3-7.7-11.6-7.7-18.9s2.4-11.3,7.1-16c4.7-4.6,11.9-6.9,21.6-6.9Z"/>
  <path class="st0" d="M804.1,970.5c9.7,0,18.5-4.1,26.5-12.3,8-8.2,14.2-16.9,18.7-26.1l-5.2-2.6c-3.9,7.1-8.3,13.2-13.4,18.4-5.1,5.2-9.6,7.7-13.7,7.7s-7.8-3-7.8-9,.4-5.9,1.3-9.4l27.4-126.2h9c3,0,5.4.5,7.1,1.6,1.7,1.1,3.7,2.7,5.8,4.8,2.4,3,4.7,4.5,7.1,4.5,4.1,0,6.1-3.8,6.1-11.3v-6.8h-33.5l6.8-31.9c.4-1.7.6-2.9.6-3.5,0-2.2-1.1-3.2-3.2-3.2s-4.6,1.3-6.6,3.9c-2.1,2.6-4.8,6.7-8.2,12.3-5,7.7-9,13.4-12.3,17.1-3.2,3.7-7,5.5-11.3,5.5s-7.7.3-9.7.8-2.9,1.5-2.9,2.7.5,1.6,1.6,2.1c1.1.5,2.4,1,3.9,1.5,3,.9,5.3,1.9,6.9,3.1,1.6,1.2,2.1,3.2,1.4,6l-27.1,111.6c-1.1,4.1-1.6,8.5-1.6,13.2,0,8.8,2.4,15.3,7.2,19.4,4.8,4.1,11.1,6.1,18.9,6.1Z"/>
  <path class="st0" d="M893.5,822.2c4.1-4.2,7.2-6.3,9.3-6.3s3.9,1.9,3.9,5.8-1.1,11.1-3.2,20.3l-26.1,123.3h32.6l1.3-6.5c34-94.9,57.1-142.3,69.4-142.3s3.2.6,4.4,1.8,2.6,3.1,4.4,5.6c2.1,3.5,4.2,6,6.3,7.7,2,1.7,4.7,2.6,7.9,2.6s7.1-1.4,9.7-4.2,3.9-6.6,3.9-11.3-2.1-10.5-6.1-14.2-9.1-5.5-15.2-5.5c-8.8,0-17.1,4.2-24.7,12.4-7.6,8.3-15.1,20.1-22.3,35.3-7.2,15.3-15.6,35.7-25.3,61.3h-1.6l15.8-74.9c1.5-6.2,2.3-11.9,2.3-17.1s-1.4-11-4.2-13.5c-2.8-2.6-7-3.9-12.6-3.9-9,0-17.8,3.8-26.3,11.3-8.5,7.5-15.6,16.7-21.5,27.4l4.8,2.9c4.7-8,9.1-14,13.2-18.2Z"/>
  <path class="st0" d="M1019.9,942.7c5.4,9,12.3,15.9,20.8,20.6s17.4,7.1,26.6,7.1,22.1-2.6,31.3-7.7c9.2-5.2,16.9-11.4,22.9-18.7,6-7.3,10.3-14.2,12.9-20.7l-4.5-2.9c-4.7,7.7-10.7,14.6-17.9,20.5-7.2,5.9-15.4,8.9-24.7,8.9s-22.8-4.7-31-14c-8.2-9.3-12.3-21.9-12.3-37.6,14.6-2.1,30.1-6.3,46.5-12.4,16.3-6.1,30.3-14,41.8-23.7,11.5-9.7,17.3-20.7,17.3-32.9s-3.7-16.1-11.1-21.8c-7.4-5.7-18.3-8.6-32.8-8.6s-35.2,5.4-49.4,16.1c-14.2,10.8-25.2,24.7-32.9,42s-11.6,34.9-11.6,53.2,2.7,23.6,8.1,32.6ZM1052.2,849.5c4.7-13.1,11.3-23.7,19.8-31.6,8.5-8,18.2-11.9,29.2-11.9s19.4,7.1,19.4,21.3-3.9,22.6-11.8,31.6c-7.9,9-17.6,16.2-29.4,21.6-11.7,5.4-23.5,9.2-35.3,11.3.6-15,3.3-29.1,8.1-42.3Z"/>
  <path class="st0" d="M1183,963.4c8.5,4.7,17.4,7.1,26.6,7.1s22.1-2.6,31.3-7.7c9.2-5.2,16.9-11.4,22.9-18.7,6-7.3,10.3-14.2,12.9-20.7l-4.5-2.9c-4.7,7.7-10.7,14.6-17.9,20.5-7.2,5.9-15.4,8.9-24.7,8.9s-22.8-4.7-31-14c-8.2-9.3-12.3-21.9-12.3-37.6,14.6-2.1,30.1-6.3,46.5-12.4,16.3-6.1,30.3-14,41.8-23.7,11.5-9.7,17.3-20.7,17.3-32.9s-3.7-16.1-11.1-21.8c-7.4-5.7-18.3-8.6-32.8-8.6s-35.2,5.4-49.4,16.1c-14.2,10.8-25.2,24.7-32.9,42s-11.6,34.9-11.6,53.2,2.7,23.6,8.1,32.6c5.4,9,12.3,15.9,20.8,20.6ZM1194.5,849.5c4.7-13.1,11.3-23.7,19.8-31.6,8.5-8,18.2-11.9,29.2-11.9s19.4,7.1,19.4,21.3-3.9,22.6-11.8,31.6c-7.9,9-17.6,16.2-29.4,21.6-11.7,5.4-23.5,9.2-35.3,11.3.6-15,3.3-29.1,8.1-42.3Z"/>
  <path class="st0" d="M1323.8,970.5c9.7,0,18.5-4.1,26.5-12.3,8-8.2,14.2-16.9,18.7-26.1l-5.2-2.6c-3.9,7.1-8.3,13.2-13.4,18.4-5.1,5.2-9.6,7.7-13.7,7.7s-7.8-3-7.8-9,.4-5.9,1.3-9.4l27.4-126.2h9c3,0,5.4.5,7.1,1.6,1.7,1.1,3.7,2.7,5.8,4.8,2.4,3,4.7,4.5,7.1,4.5,4.1,0,6.1-3.8,6.1-11.3v-6.8h-33.5l6.8-31.9c.4-1.7.6-2.9.6-3.5,0-2.2-1.1-3.2-3.2-3.2s-4.6,1.3-6.6,3.9c-2.1,2.6-4.8,6.7-8.2,12.3-5,7.7-9,13.4-12.3,17.1-3.2,3.7-7,5.5-11.3,5.5s-7.7.3-9.7.8-2.9,1.5-2.9,2.7.5,1.6,1.6,2.1c1.1.5,2.4,1,3.9,1.5,3,.9,5.3,1.9,6.9,3.1,1.6,1.2,2.1,3.2,1.4,6l-27.1,111.6c-1.1,4.1-1.6,8.5-1.6,13.2,0,8.8,2.4,15.3,7.2,19.4,4.8,4.1,11.1,6.1,18.9,6.1Z"/>
  <path class="st0" d="M895.2,1172.1h85.4c-6.8,29.9-37.5,49-75.5,49s-83.1-35.2-83.1-86.5,34.1-86,80.6-86,69,25.7,77.8,62.6h34.9c-10.1-54.4-55-92.2-112.4-92.2s-115,47.1-115,115.5,48.2,116.1,117.2,116.1,108.8-43.1,111-107.4h-120.9v28.7Z"/>
  <path class="st0" d="M1177,1170.1c0,30.4-20.3,51.3-49.9,51.3s-49.9-20.8-49.9-51.3v-105.7h-33v105.4c0,48.2,33,80.9,76.4,80.9s49.9-16.1,56.4-31.3v28.2h33v-183.2h-33v105.7Z"/>
  <rect class="st0" x="1255" y="1081.1" width="33" height="166.5"/>
  <rect class="st0" x="1255" y="1022.2" width="33" height="29.9"/>
  <path class="st0" d="M1477.9,1093.8c-14.4-20.3-37.5-32.4-66.2-32.4-51.3,0-89.9,38.6-89.9,94.7s38.6,94.7,89.9,94.7,51.9-12.1,66.2-32.1v29h33v-225.4h-33v71.6ZM1417.3,1221.2c-36.1,0-61.4-26.2-61.4-65.1s25.4-65.1,61.4-65.1,61.7,26.5,61.7,65.1-25.4,65.1-61.7,65.1Z"/>
  <path class="st0" d="M1640.5,1061.4c-56.1,0-95.8,38.6-95.8,95s38.9,94.4,95,94.4,81.2-27.1,92.7-68.8h-35.5c-8.4,24.2-30.7,38.9-57.2,38.9s-57.2-20.6-59.7-53h155c5.1-62-35.2-106.5-94.4-106.5ZM1581,1140.3c5.9-30.1,29.3-49.3,59.7-49.3s52.1,17.5,58.3,49l-118.1.3Z"/>
  <path class="st0" d="M1836.6,1141.1c-20.8-7.1-38.6-11-38.6-28.5s11.6-23.1,28.2-23.1,30.7,11.3,30.7,27.9h33c0-33.8-27.9-57.5-64.8-57.5s-60.3,21.7-60.3,53.8,31,44.8,58.1,54.1c21.7,7.6,42.3,10.4,42.3,28.5s-17.2,24.8-34.1,24.8c-24,0-39.7-16.4-39.7-40h-33c0,40.9,28.2,69.6,70.7,69.6s69-22,69-56.1-33.2-44.2-61.4-53.5Z"/>
  <polygon class="st0" points="702.8 1161.4 81.7 1161.4 81.7 1165.3 702.8 1165.3 695.7 1181.8 739.6 1163.3 695.7 1144.8 702.8 1161.4"/>
  <rect class="st0" x="1446.9" y="938.3" width="3.8" height="27.1"/>
  <rect class="st0" x="1500.2" y="938.3" width="3.8" height="27.1"/>
  <rect class="st0" x="1553.4" y="938.3" width="3.8" height="27.1"/>
  <rect class="st0" x="1606.7" y="938.3" width="3.8" height="27.1"/>
  <rect class="st0" x="1754.6" y="938.3" width="3.8" height="27.1"/>
  <rect class="st0" x="1807.9" y="938.3" width="3.8" height="27.1"/>
  <rect class="st0" x="1861.2" y="938.3" width="3.8" height="27.1"/>
  <rect class="st0" x="1914.4" y="938.3" width="3.8" height="27.1"/>
  <rect class="st0" x="1653.2" y="916.3" width="3.8" height="49"/>
  <rect class="st0" x="1703.9" y="895.1" width="3.8" height="70.2"/>
  <path class="st0" d="M1918.3,1021.5v-18.2h-18.2v7.2H787.9v-7.2h-18.2v18.2h7.2v229.2h-7.2v18.2h18.2v-7.2h1112.2v7.2h18.2v-18.2h-7.2v-229.2h7.2ZM1900.1,1250.7v7.2H787.9v-7.2h-7.2v-229.2h7.2v-7.2h1112.2v7.2h7.2v229.2h-7.2Z"/>
  <path class="st0" d="M1693,881.8c1.8,1.4,3.9,2.1,6.3,2.1s4.5-.7,6.3-2.1c1.8-1.4,3.3-3.3,4.3-5.8,1-2.5,1.5-5.3,1.5-8.5s-.5-6-1.5-8.5c-1-2.5-2.5-4.4-4.3-5.7-1.8-1.4-4-2.1-6.3-2.1s-4.5.7-6.3,2.1c-1.8,1.4-3.3,3.3-4.3,5.7-1,2.5-1.5,5.3-1.5,8.5s.5,6,1.5,8.5c1,2.5,2.5,4.4,4.3,5.8ZM1694.3,857.2c1.2-2.6,2.8-3.9,5-3.9s3.8,1.3,5,3.9c1.2,2.6,1.8,6,1.8,10.4s-.6,7.8-1.8,10.4c-1.2,2.6-2.8,3.9-5,3.9s-3.8-1.3-5-3.9c-1.2-2.6-1.8-6-1.8-10.4s.6-7.8,1.8-10.4Z"/>
  <path class="st0" d="M1715.4,880.5c-.2.3-.6.7-1,1-.5.4-.8.8-.8,1.1s.3.7.8.7.7,0,1.3,0c.8,0,1.6,0,2.3,0h.8c.7,0,1.5,0,2.3,0,.6,0,1,0,1.3,0,.5,0,.8-.2.8-.7s-.3-.7-.8-1.1c-.5-.4-.8-.7-1-1-.2-.3-.3-.8-.3-1.4v-26.9c0-.3,0-.6-.2-.7s-.3-.2-.5-.2c-.4,0-.8.2-1.4.5,0,0-.4.2-1,.4-.6.2-1.3.4-2.1.5-1.2.2-1.7.5-1.7.9s.2.4.6.8.7.7.9,1.2c.2.5.4,1.2.4,2.1v21.6c0,.6-.1,1.1-.4,1.4Z"/>
</svg>