<?xml version="1.0" encoding="UTF-8"?>
<svg id="Layer_1" xmlns="http://www.w3.org/2000/svg" version="1.1" viewBox="59.24 838.44 1881.71 323.81">
  <!-- Generator: Adobe Illustrator 30.3.0, SVG Export Plug-In . SVG Version: 2.1.3 Build 182)  -->
  <defs>
    <style>
      .st0 {
        fill: #fff;
      }
    </style>
  </defs>
  <g>
    <g>
      <path class="st0" d="M679.9,972.9c-21.3,0-39,12.7-42.8,31.8v95.9h-29.6v-152h26.8l2.8,18.5,1.9.6c10-12.2,22.9-21.8,48.4-21.8s41.7,6.9,51.4,26.8l.8.3c11-15.5,25.7-27.1,53.6-27.1s57.5,12.2,57.5,52v102.8h-29.3v-95.9c0-24.6-19.1-31.8-34.6-31.8s-39.3,12.4-42.8,32.9v94.8h-29.6v-95.9c0-24.6-18.8-31.8-34.6-31.8Z"/>
      <path class="st0" d="M880.2,896.4h33.7v28.2h-33.7v-28.2ZM882.1,948.6h29.6v152h-29.6v-152Z"/>
      <path class="st0" d="M1018.4,972.9c-25.2,0-39.5,15.7-44.5,33.7v94h-29.6v-152h26.8l2.8,18,1.9.8c9.1-10.2,22.1-21.6,48.4-21.6s58.3,15.7,58.3,52v102.8h-29.6v-95.6c0-24.9-18.2-32.1-34.5-32.1Z"/>
      <path class="st0" d="M1111.7,896.4h33.7v28.2h-33.7v-28.2ZM1113.6,948.6h29.6v152h-29.6v-152Z"/>
      <path class="st0" d="M1227.8,1024.9c0-48.9,30.1-79.1,66.6-79.1s40.6,11.6,49.5,26.3l2.2-.8v-72.4h29.6v201.8h-26.8l-2.8-22.9-2.2-.8c-5.3,10.5-21.9,26.5-48.4,26.5s-67.7-29-67.7-78.5ZM1346.2,1032.4v-18c0-21.3-15.8-42.3-43.9-42.3s-44,22.4-44,52.8,17.7,52.2,44,52.2,43.9-19.9,43.9-44.8Z"/>
      <path class="st0" d="M1404.3,1024.6c0-52.5,37.6-78.8,82.4-78.8s82.1,26.5,82.1,78.8-37.6,78.8-82.1,78.8-82.4-26.5-82.4-78.8ZM1538.3,1024.9c0-36.8-24.3-52.2-51.7-52.2s-52,15.7-52,52.2,24.1,51.7,52,51.7,51.7-16,51.7-51.7Z"/>
      <path class="st0" d="M1594.8,1024.9c0-51.1,36.5-79.1,77.7-79.1s61.4,18.2,67.5,47l-26,5.8c-4.2-13-15.8-26.5-39.8-26.5s-48.9,18.3-48.9,53.1,19.4,51.7,49.5,51.7,35.9-14.1,39.5-26.3l26.3,5.8c-6.4,29-32.3,47-66.6,47s-79.1-28.2-79.1-78.5Z"/>
      <path class="st0" d="M1759.4,1059.7l27.9-5.3c3.3,12.7,15.2,26.3,39.3,26.3s33.7-12.2,33.7-23.8c0-35.1-94.3-7.7-94.3-64.7s27.1-46.4,60.3-46.4,53.1,10.8,59.2,40.6l-25.7,7.4c-4.1-18.8-18.8-25.4-35.1-25.4s-30.7,8.6-30.7,20.7c0,31.5,93.7,8.3,93.7,65s-20.7,49.2-62.8,49.2-60-16.6-65.5-43.7Z"/>
    </g>
    <g>
      <path class="st0" d="M679.9,972.9c-21.3,0-39,12.7-42.8,31.8v95.9h-29.6v-152h26.8l2.8,18.5,1.9.6c10-12.2,22.9-21.8,48.4-21.8s41.7,6.9,51.4,26.8l.8.3c11-15.5,25.7-27.1,53.6-27.1s57.5,12.2,57.5,52v102.8h-29.3v-95.9c0-24.6-19.1-31.8-34.6-31.8s-39.3,12.4-42.8,32.9v94.8h-29.6v-95.9c0-24.6-18.8-31.8-34.6-31.8Z"/>
      <path class="st0" d="M880.2,896.4h33.7v28.2h-33.7v-28.2ZM882.1,948.6h29.6v152h-29.6v-152Z"/>
      <path class="st0" d="M1018.4,972.9c-25.2,0-39.5,15.7-44.5,33.7v94h-29.6v-152h26.8l2.8,18,1.9.8c9.1-10.2,22.1-21.6,48.4-21.6s58.3,15.7,58.3,52v102.8h-29.6v-95.6c0-24.9-18.2-32.1-34.5-32.1Z"/>
      <path class="st0" d="M1111.7,896.4h33.7v28.2h-33.7v-28.2ZM1113.6,948.6h29.6v152h-29.6v-152Z"/>
      <path class="st0" d="M1227.8,1024.9c0-48.9,30.1-79.1,66.6-79.1s40.6,11.6,49.5,26.3l2.2-.8v-72.4h29.6v201.8h-26.8l-2.8-22.9-2.2-.8c-5.3,10.5-21.9,26.5-48.4,26.5s-67.7-29-67.7-78.5ZM1346.2,1032.4v-18c0-21.3-15.8-42.3-43.9-42.3s-44,22.4-44,52.8,17.7,52.2,44,52.2,43.9-19.9,43.9-44.8Z"/>
      <path class="st0" d="M1404.3,1024.6c0-52.5,37.6-78.8,82.4-78.8s82.1,26.5,82.1,78.8-37.6,78.8-82.1,78.8-82.4-26.5-82.4-78.8ZM1538.3,1024.9c0-36.8-24.3-52.2-51.7-52.2s-52,15.7-52,52.2,24.1,51.7,52,51.7,51.7-16,51.7-51.7Z"/>
      <path class="st0" d="M1594.8,1024.9c0-51.1,36.5-79.1,77.7-79.1s61.4,18.2,67.5,47l-26,5.8c-4.2-13-15.8-26.5-39.8-26.5s-48.9,18.3-48.9,53.1,19.4,51.7,49.5,51.7,35.9-14.1,39.5-26.3l26.3,5.8c-6.4,29-32.3,47-66.6,47s-79.1-28.2-79.1-78.5Z"/>
      <path class="st0" d="M1759.4,1059.7l27.9-5.3c3.3,12.7,15.2,26.3,39.3,26.3s33.7-12.2,33.7-23.8c0-35.1-94.3-7.7-94.3-64.7s27.1-46.4,60.3-46.4,53.1,10.8,59.2,40.6l-25.7,7.4c-4.1-18.8-18.8-25.4-35.1-25.4s-30.7,8.6-30.7,20.7c0,31.5,93.7,8.3,93.7,65s-20.7,49.2-62.8,49.2-60-16.6-65.5-43.7Z"/>
    </g>
  </g>
  <g>
    <path class="st0" d="M472.1,1037.3v-90c0-.9-.2-1.6-.2-2.3-.2-2.1-.5-3.9-.9-5.7-.2-1.4-.7-2.5-.9-3.7-.2-.5-.5-1.1-.7-1.6-.2-.7-.7-1.4-.9-1.8-.2-.5-.5-.9-.7-1.4-.2-.5-.5-.9-.9-1.6-.2-.5-.7-1.1-1.1-1.6-.2-.5-.5-.7-.7-1.1-.2-.2-.7-.7-.9-1.1l-.2-.2c-.2-.2-.7-.7-.9-1.1-.5-.2-.9-.7-1.1-1.1q-.2,0-.5-.2l-.2-.2c-.2-.2-.5-.5-.7-.5-.2-.5-.7-.7-1.1-1.1-.5-.2-.9-.5-1.1-.9h-.2c-.5-.2-.9-.7-1.4-.9-.5-.2-.9-.5-1.4-.7-.5-.5-.9-.7-1.4-.9-.5-.2-.9-.5-1.4-.7-.5-.2-1.1-.5-1.6-.5-.5-.2-.9-.5-1.4-.7l-38.2-18.3c-8-3.9-16.7-5.7-25-5.7-28.2,0-54.3,20.6-57.5,50.8-.2.9-.2,1.8-.5,2.8v5.3c0-.9,0-1.8-.2-2.5v-1.4c-.9-16.5-10.8-26.8-22.7-30.9l-38.2-18.1c-8-3.9-16.7-5.7-25-5.7-28.2,0-54.1,20.4-57.5,50.6,0,.9-.2,1.8-.2,2.8s0,1.4-.2,2.3v124.1l-71.9-34.1c0,14.4,8.2,27.7,21.5,33.9l68,32.5c1.4.7,2.5,1.4,3.9,1.8,4.8,1.8,9.8,2.8,14.9,2.8,8.7,0,17.2-2.8,23.8-8.2,6.2-5.3,10.5-13.1,11.7-23.4v-16l86.8,41.2c-.5-.2-.7-.9-1.1-1.1,6.6,5,14.9,7.6,22.9,7.6,17.2,0,33.9-10.8,35.3-32.8v-.2c.2-.5.2-.9.2-1.4v-13.7l85,40.3.2.2c6.4,5.3,14.9,7.8,23.1,7.8,17.2,0,34.1-11,35.5-33v-3.9l-71.9-34.4ZM250.4,949.4v126.9c-.9,8-4.1,14.9-9.6,19.5-5.3,4.6-12.4,6.9-20.2,6.9s-8.7-.7-12.6-2.3c-1.1-.5-2.3-.9-3.4-1.6-9.4-5.3-14.7-14.4-14.7-26.3v-124.8l.2-2.1.2-2.5c2.8-26.1,25.2-45.6,51.8-45.6s15.3,1.6,22.7,5l14.9,7.1c-16,4.8-29.3,18.3-29.3,39.9ZM422.7,909.8l-1.6.7-1.4.5-.2.2-1.4.5-1.1.5v.2l-1.4.7c-.9.5-2.1.9-3,1.6l-1.6,1.1-.9.7-1.6,1.4-1.1.7v.2l-2.3,2.3c-.7.7-1.4,1.6-2.1,2.3-.7.9-1.4,1.8-1.8,2.5l-1.1,1.8c-.7,1.1-1.4,2.5-1.8,3.7-.7,1.4-1.1,2.7-1.6,4.1-1.4,4.4-2.1,9.2-2.1,14v122.3l-.2,3.2v.9c-1.4,18.5-15.8,26.8-29.5,26.8s-30.7-9.4-30.7-30.2v-126.9l.2-2.5c3-26.1,25.2-45.8,52-45.8s15.3,1.8,22.7,5.3l14.7,7.1-.9.2ZM538.3,1075.6v.2c-1.6,18.5-15.8,27-29.8,27-30.7,0-37-30.9-37-30.9v-28.2l66.8,31.4v.5Z"/>
    <path class="st0" d="M472.1,1037.3v-90c0-.9-.2-1.6-.2-2.3-.2-2.1-.5-3.9-.9-5.7-.2-1.4-.7-2.5-.9-3.7-.2-.5-.5-1.1-.7-1.6-.2-.7-.7-1.4-.9-1.8-.2-.5-.5-.9-.7-1.4-.2-.5-.5-.9-.9-1.6-.2-.5-.7-1.1-1.1-1.6-.2-.5-.5-.7-.7-1.1-.2-.2-.7-.7-.9-1.1l-.2-.2c-.2-.2-.7-.7-.9-1.1-.5-.2-.9-.7-1.1-1.1q-.2,0-.5-.2l-.2-.2c-.2-.2-.5-.5-.7-.5-.2-.5-.7-.7-1.1-1.1-.5-.2-.9-.5-1.1-.9h-.2c-.5-.2-.9-.7-1.4-.9-.5-.2-.9-.5-1.4-.7-.5-.5-.9-.7-1.4-.9-.5-.2-.9-.5-1.4-.7-.5-.2-1.1-.5-1.6-.5-.5-.2-.9-.5-1.4-.7l-38.2-18.3c-8-3.9-16.7-5.7-25-5.7-28.2,0-54.3,20.6-57.5,50.8-.2.9-.2,1.8-.5,2.8v5.3c0-.9,0-1.8-.2-2.5v-1.4c-.9-16.5-10.8-26.8-22.7-30.9l-38.2-18.1c-8-3.9-16.7-5.7-25-5.7-28.2,0-54.1,20.4-57.5,50.6,0,.9-.2,1.8-.2,2.8s0,1.4-.2,2.3v124.1l-71.9-34.1c0,14.4,8.2,27.7,21.5,33.9l68,32.5c1.4.7,2.5,1.4,3.9,1.8,4.8,1.8,9.8,2.8,14.9,2.8,8.7,0,17.2-2.8,23.8-8.2,6.2-5.3,10.5-13.1,11.7-23.4v-16l86.8,41.2c-.5-.2-.7-.9-1.1-1.1,6.6,5,14.9,7.6,22.9,7.6,17.2,0,33.9-10.8,35.3-32.8v-.2c.2-.5.2-.9.2-1.4v-13.7l85,40.3.2.2c6.4,5.3,14.9,7.8,23.1,7.8,17.2,0,34.1-11,35.5-33v-3.9l-71.9-34.4ZM250.4,949.4v126.9c-.9,8-4.1,14.9-9.6,19.5-5.3,4.6-12.4,6.9-20.2,6.9s-8.7-.7-12.6-2.3c-1.1-.5-2.3-.9-3.4-1.6-9.4-5.3-14.7-14.4-14.7-26.3v-124.8l.2-2.1.2-2.5c2.8-26.1,25.2-45.6,51.8-45.6s15.3,1.6,22.7,5l14.9,7.1c-16,4.8-29.3,18.3-29.3,39.9ZM422.7,909.8l-1.6.7-1.4.5-.2.2-1.4.5-1.1.5v.2l-1.4.7c-.9.5-2.1.9-3,1.6l-1.6,1.1-.9.7-1.6,1.4-1.1.7v.2l-2.3,2.3c-.7.7-1.4,1.6-2.1,2.3-.7.9-1.4,1.8-1.8,2.5l-1.1,1.8c-.7,1.1-1.4,2.5-1.8,3.7-.7,1.4-1.1,2.7-1.6,4.1-1.4,4.4-2.1,9.2-2.1,14v122.3l-.2,3.2v.9c-1.4,18.5-15.8,26.8-29.5,26.8s-30.7-9.4-30.7-30.2v-126.9l.2-2.5c3-26.1,25.2-45.8,52-45.8s15.3,1.8,22.7,5.3l14.7,7.1-.9.2ZM538.3,1075.6v.2c-1.6,18.5-15.8,27-29.8,27-30.7,0-37-30.9-37-30.9v-28.2l66.8,31.4v.5Z"/>
  </g>
</svg>