<?xml version="1.0" encoding="UTF-8"?>
<svg id="Layer_1" xmlns="http://www.w3.org/2000/svg" version="1.1" viewBox="0 0 2000 2000">
  <!-- Generator: Adobe Illustrator 30.3.0, SVG Export Plug-In . SVG Version: 2.1.3 Build 182)  -->
  <defs>
    <style>
      .st0 {
        fill: #fff;
      }
    </style>
  </defs>
  <path class="st0" d="M285.5,1253l-158.9-75.6c-30.7-14.6-50.3-45.6-50.3-79.6h0s168,79.9,168,79.9v2.2c0,35.6,17.5,60,41.2,73Z"/>
  <path class="st0" d="M853.6,811.1c2,.4,3.9,1,5.9,1.5-1.9-.6-3.9-1.1-5.9-1.5ZM828.9,809c.4,0,.8,0,1.2,0,1.4,0,2.9,0,4.3,0h-1.2c-1.4,0-2.9,0-4.3.1ZM826.8,809.1c.3,0,.5,0,.8,0-.2,0-.5,0-.7,0t0,0ZM823.6,809.4c1-.1,2-.2,2.9-.3-1,0-1.9.2-2.9.2h0ZM600.9,1236.9c4.1,4.5,8.8,8.5,13.8,11.9h0s.1,0,.1,0c-5.1-3.4-9.8-7.4-14-12Z"/>
  <path class="st0" d="M379.4,764.6h0c19.3,0,38,4.2,55.6,12.6l53.7,25.5c-42.5,3.7-83,34.5-83,90.2v289.7c0,0-.1,2.1-.1,2.1,0,1.5-.1,3.1-.3,4.7-1.9,20.7-10.4,38.1-24.6,50.1-13.6,11.5-31.8,17.8-51.2,17.8s-22.3-2.1-32.4-6.2c-2.8-1.2-5.6-2.5-8.4-4-24.4-13.4-37.8-37.2-37.8-67.2v-288.7s.2-3.2.2-3.2l.3-4.9c.2-2.1.3-4.2.6-6.2,7-64.1,61.8-112.4,127.5-112.4h0ZM379.4,758c-65.6,0-126.4,47.7-134.1,118.3-.2,2.2-.4,4.3-.6,6.5-.1,1.7-.2,3.3-.3,5.1,0,1.1-.1,2.3-.1,3.5,0,1.1,0,2.3,0,3.4v285.3c0,35.6,17.5,60,41.2,73,2.9,1.6,5.9,3,9,4.3h0c11,4.5,22.9,6.7,34.8,6.7,20.1,0,40.2-6.4,55.5-19.4,14.5-12.3,24.8-30.4,26.9-54.6h0c.2-1.7.2-3.3.3-5,0-1.1,0-2.3.1-3.4,0-1.2,0-2.3,0-3.5v-285.2h0c0-55.6,42.8-84,85.1-84,10.6,0,21.2,1.8,31.1,5.4l-90.7-43.1c-19-9.1-38.9-13.3-58.4-13.3h0Z"/>
  <path class="st0" d="M614.9,1249h-.1c0,0,0,0,0,0l-202.4-96.3v-259.6h0c0-10.5,1.5-19.9,4.2-28.4.7-2.1,1.4-4.2,2.3-6.2,1.9-4.7,4.3-9,6.9-13h0c.8-1.2,1.5-2.3,2.3-3.4,0,0,0,0,0,0,.8-1.1,1.6-2.1,2.5-3.2.4-.5.9-1,1.3-1.6.9-1,1.8-2,2.7-3,.5-.5.9-.9,1.4-1.4.9-.9,1.8-1.7,2.8-2.6,1.2-1,2.4-2,3.6-3,1.4-1.1,2.9-2.2,4.4-3.2,0,0,0,0,0,0,1.1-.7,2.2-1.5,3.3-2.1.6-.4,1.1-.7,1.7-1,6.3-3.6,13.1-6.5,20.2-8.4,1.2-.3,2.4-.6,3.6-.9,3.9-.9,7.8-1.6,11.7-2,4.1-.4,8.2-.6,12.3-.5.7,0,1.4,0,2.1,0,.9,0,1.7.1,2.6.2.6,0,1.2.1,1.9.2.9,0,1.8.2,2.7.3.5,0,.9.1,1.4.2,2,.3,4,.6,5.9,1,.3,0,.6.1.8.2,1.1.2,2.1.5,3.2.8.3,0,.7.2,1,.3,1.1.3,2.2.6,3.3,1,0,0,0,0,.1,0,1.1.3,2.2.7,3.3,1.1,27.5,9.9,49.6,33.6,51.8,71.8t0,0c0,1,.1,2,.2,3,0,1.8,0,3.7,0,5.6v285.3c0,.8,0,1.7,0,2.5,0,.3,0,.6,0,1,0,.5,0,1.1,0,1.6,0,.5,0,1.1,0,1.6,0,1.5.2,2.9.4,4.3,0,.4,0,.8.1,1.2s.1.8.2,1.2c0,.5.1.9.2,1.4.1.8.3,1.7.4,2.5.1.9.3,1.7.5,2.6.1.7.3,1.3.4,2,.1.5.3,1.1.4,1.6.2.7.4,1.4.5,2,.1.4.2.8.4,1.2.2.8.5,1.5.7,2.3.2.5.3,1,.5,1.5.1.4.3.8.4,1.2.1.4.3.8.4,1.2.3.7.6,1.5.9,2.2.5,1.3,1.1,2.6,1.8,3.9.2.5.5.9.7,1.4.1.3.3.6.5.9.1.3.3.6.5.9.6,1.2,1.3,2.3,2,3.4.1.3.3.5.5.7.6,1,1.2,1.9,1.9,2.9.3.5.6.9,1,1.4,1.7,2.3,3.4,4.4,5.3,6.5,4.2,4.6,8.9,8.6,14,12Z"/>
  <path class="st0" d="M800.2,814.9c-.2,0-.5.2-.7.3.2,0,.5-.2.7-.3Z"/>
  <path class="st0" d="M826.6,809.1c-1,0-2,.2-2.9.3h0c1-.1,1.9-.2,2.9-.3Z"/>
  <path class="st0" d="M827.6,809.1c-.3,0-.5,0-.8,0t0,0c.2,0,.5,0,.7,0Z"/>
  <path class="st0" d="M834.5,808.9c-1.5,0-2.9,0-4.3,0-.4,0-.8,0-1.2,0,1.5,0,2.9-.1,4.3-.1h1.2Z"/>
  <path class="st0" d="M859.4,812.6c-1.9-.6-3.9-1.1-5.9-1.5,2,.4,3.9.9,5.9,1.5Z"/>
  <g>
    <path class="st0" d="M1249.8,824.3c-24.5,0-44.9,14.7-49.4,36.7v110.7h-34.1v-175.4h30.9l3.2,21.4,2.2.6c11.5-14,26.5-25.2,55.8-25.2s48.1,8,59.3,30.9l1,.3c12.7-17.9,29.6-31.2,61.9-31.2s66.3,14,66.3,59.9v118.6h-33.8v-110.7c0-28.4-22-36.7-39.9-36.7s-45.3,14.3-49.4,38v109.4h-34.1v-110.7c0-28.4-21.7-36.7-39.9-36.7Z"/>
    <path class="st0" d="M1480.9,736h38.9v32.5h-38.9v-32.5ZM1483.1,796.3h34.1v175.4h-34.1v-175.4Z"/>
    <path class="st0" d="M1640.4,824.3c-29,0-45.6,18.2-51.3,38.9v108.4h-34.1v-175.4h30.9l3.2,20.7,2.2,1c10.5-11.8,25.5-24.9,55.8-24.9s67.3,18.2,67.3,59.9v118.6h-34.1v-110.3c0-28.7-21-37-39.8-37Z"/>
    <path class="st0" d="M1747.9,736h38.9v32.5h-38.9v-32.5ZM1750.1,796.3h34.1v175.4h-34.1v-175.4Z"/>
    <path class="st0" d="M1162.4,1155.3c0-56.5,34.8-91.2,76.9-91.2s46.9,13.4,57.1,30.3l2.6-1v-83.5h34.1v232.8h-30.9l-3.2-26.5-2.6-1c-6.1,12.1-25.2,30.6-55.8,30.6s-78.1-33.5-78.1-90.6ZM1298.9,1163.9v-20.7c0-24.6-18.2-48.8-50.7-48.8s-50.7,25.8-50.7,60.9,20.4,60.2,50.7,60.2,50.7-22.9,50.7-51.7Z"/>
    <path class="st0" d="M1366,1155c0-60.6,43.4-90.9,95-90.9s94.7,30.6,94.7,90.9-43.4,90.9-94.7,90.9-95-30.6-95-90.9ZM1520.7,1155.3c0-42.4-28-60.3-59.6-60.3s-60,18.2-60,60.3,27.8,59.6,60,59.6,59.6-18.5,59.6-59.6Z"/>
    <path class="st0" d="M1585.8,1155.3c0-59,42.1-91.2,89.6-91.2s70.8,21,77.8,54.2l-30,6.7c-4.8-15-18.2-30.6-45.9-30.6s-56.5,21.1-56.5,61.2,22.3,59.6,57.1,59.6,41.4-16.3,45.6-30.3l30.3,6.7c-7.3,33.5-37.3,54.2-76.8,54.2s-91.2-32.5-91.2-90.6Z"/>
    <path class="st0" d="M1775.7,1195.5l32.2-6.1c3.8,14.7,17.5,30.3,45.3,30.3s38.9-14,38.9-27.4c0-40.5-108.8-8.9-108.8-74.6s31.3-53.6,69.5-53.6,61.2,12.4,68.2,46.9l-29.7,8.6c-4.8-21.7-21.7-29.3-40.5-29.3s-35.4,9.9-35.4,23.9c0,36.4,108.1,9.6,108.1,75s-23.9,56.8-72.4,56.8-69.2-19.1-75.6-50.4Z"/>
  </g>
  <g>
    <path class="st0" d="M916.2,1097.1v-210.1c0-2.1-.5-3.7-.5-5.3-.5-4.8-1.1-9.1-2.1-13.4-.5-3.2-1.6-5.9-2.1-8.6-.5-1.1-1.1-2.7-1.6-3.7-.5-1.6-1.6-3.2-2.1-4.3-.5-1.1-1.1-2.1-1.6-3.2-.5-1.1-1.1-2.1-2.1-3.7-.5-1.1-1.6-2.7-2.7-3.7-.5-1.1-1.1-1.6-1.6-2.7-.5-.5-1.6-1.6-2.1-2.7l-.5-.5c-.5-.5-1.6-1.6-2.1-2.7-1.1-.5-2.1-1.6-2.7-2.7q-.5,0-1.1-.5l-.5-.5c-.5-.5-1.1-1.1-1.6-1.1-.5-1.1-1.6-1.6-2.7-2.7-1.1-.5-2.1-1.1-2.7-2.1h-.5c-1.1-.5-2.1-1.6-3.2-2.1-1.1-.5-2.1-1.1-3.2-1.6-1.1-1.1-2.1-1.6-3.2-2.1-1.1-.5-2.1-1.1-3.2-1.6-1.1-.5-2.7-1.1-3.7-1.1-1.1-.5-2.1-1.1-3.2-1.6l-89.3-42.8c-18.7-9.1-39-13.4-58.3-13.4-65.8,0-126.7,48.1-134.2,118.7-.5,2.1-.5,4.3-1.1,6.4v12.3c0-2.1,0-4.3-.5-5.9v-3.2c-2.1-38.5-25.1-62.5-52.9-72.2l-89.3-42.2c-18.7-9.1-39-13.4-58.3-13.4-65.8,0-126.2,47.6-134.2,118.1,0,2.1-.5,4.3-.5,6.4s0,3.2-.5,5.3v289.8l-167.9-79.7c0,33.7,19.3,64.7,50.2,79.1l158.8,75.9c3.2,1.6,5.9,3.2,9.1,4.3,11.2,4.3,23,6.4,34.7,6.4,20.3,0,40.1-6.4,55.6-19.3,14.4-12.3,24.6-30.5,27.3-54.5v-37.4l202.6,96.2c-1.1-.5-1.6-2.1-2.7-2.7,15.5,11.8,34.8,17.6,53.5,17.6,40.1,0,79.1-25.1,82.3-76.5v-.5c.5-1.1.5-2.1.5-3.2v-32.1l198.3,94.1.5.5c15,12.3,34.7,18.2,54,18.2,40.1,0,79.7-25.7,82.9-77v-9.1l-167.9-80.2ZM398.7,891.8v296.2c-2.1,18.7-9.6,34.7-22.4,45.4-12.3,10.7-28.9,16-47.1,16s-20.3-1.6-29.4-5.4c-2.7-1.1-5.3-2.1-8-3.7-21.9-12.3-34.2-33.7-34.2-61.5v-291.4l.5-4.8.5-5.9c6.4-61,58.8-106.4,120.8-106.4s35.8,3.7,52.9,11.8l34.8,16.6c-37.4,11.2-68.4,42.8-68.4,93ZM800.7,799.3l-3.7,1.6-3.2,1.1-.5.5-3.2,1.1-2.7,1.1v.5l-3.2,1.6c-2.1,1.1-4.8,2.1-6.9,3.7l-3.7,2.7-2.1,1.6-3.7,3.2-2.7,1.6v.5l-5.4,5.3c-1.6,1.6-3.2,3.7-4.8,5.4-1.6,2.1-3.2,4.3-4.3,5.9l-2.7,4.3c-1.6,2.7-3.2,5.9-4.3,8.6-1.6,3.2-2.7,6.4-3.7,9.6-3.2,10.2-4.8,21.4-4.8,32.6v285.5l-.5,7.5v2.1c-3.2,43.3-36.9,62.5-69,62.5s-71.6-21.9-71.6-70.6v-296.2l.5-5.9c7-61,58.8-106.9,121.4-106.9s35.8,4.3,52.9,12.3l34.2,16.6-2.1.5ZM1070.7,1186.3v.5c-3.7,43.3-36.9,63.1-69.5,63.1-71.6,0-86.5-72.2-86.5-72.2v-65.8l156,73.3v1.1Z"/>
    <path class="st0" d="M916.2,1097.1v-210.1c0-2.1-.5-3.7-.5-5.3-.5-4.8-1.1-9.1-2.1-13.4-.5-3.2-1.6-5.9-2.1-8.6-.5-1.1-1.1-2.7-1.6-3.7-.5-1.6-1.6-3.2-2.1-4.3-.5-1.1-1.1-2.1-1.6-3.2-.5-1.1-1.1-2.1-2.1-3.7-.5-1.1-1.6-2.7-2.7-3.7-.5-1.1-1.1-1.6-1.6-2.7-.5-.5-1.6-1.6-2.1-2.7l-.5-.5c-.5-.5-1.6-1.6-2.1-2.7-1.1-.5-2.1-1.6-2.7-2.7q-.5,0-1.1-.5l-.5-.5c-.5-.5-1.1-1.1-1.6-1.1-.5-1.1-1.6-1.6-2.7-2.7-1.1-.5-2.1-1.1-2.7-2.1h-.5c-1.1-.5-2.1-1.6-3.2-2.1-1.1-.5-2.1-1.1-3.2-1.6-1.1-1.1-2.1-1.6-3.2-2.1-1.1-.5-2.1-1.1-3.2-1.6-1.1-.5-2.7-1.1-3.7-1.1-1.1-.5-2.1-1.1-3.2-1.6l-89.3-42.8c-18.7-9.1-39-13.4-58.3-13.4-65.8,0-126.7,48.1-134.2,118.7-.5,2.1-.5,4.3-1.1,6.4v12.3c0-2.1,0-4.3-.5-5.9v-3.2c-2.1-38.5-25.1-62.5-52.9-72.2l-89.3-42.2c-18.7-9.1-39-13.4-58.3-13.4-65.8,0-126.2,47.6-134.2,118.1,0,2.1-.5,4.3-.5,6.4s0,3.2-.5,5.3v289.8l-167.9-79.7c0,33.7,19.3,64.7,50.2,79.1l158.8,75.9c3.2,1.6,5.9,3.2,9.1,4.3,11.2,4.3,23,6.4,34.7,6.4,20.3,0,40.1-6.4,55.6-19.3,14.4-12.3,24.6-30.5,27.3-54.5v-37.4l202.6,96.2c-1.1-.5-1.6-2.1-2.7-2.7,15.5,11.8,34.8,17.6,53.5,17.6,40.1,0,79.1-25.1,82.3-76.5v-.5c.5-1.1.5-2.1.5-3.2v-32.1l198.3,94.1.5.5c15,12.3,34.7,18.2,54,18.2,40.1,0,79.7-25.7,82.9-77v-9.1l-167.9-80.2ZM398.7,891.8v296.2c-2.1,18.7-9.6,34.7-22.4,45.4-12.3,10.7-28.9,16-47.1,16s-20.3-1.6-29.4-5.4c-2.7-1.1-5.3-2.1-8-3.7-21.9-12.3-34.2-33.7-34.2-61.5v-291.4l.5-4.8.5-5.9c6.4-61,58.8-106.4,120.8-106.4s35.8,3.7,52.9,11.8l34.8,16.6c-37.4,11.2-68.4,42.8-68.4,93ZM800.7,799.3l-3.7,1.6-3.2,1.1-.5.5-3.2,1.1-2.7,1.1v.5l-3.2,1.6c-2.1,1.1-4.8,2.1-6.9,3.7l-3.7,2.7-2.1,1.6-3.7,3.2-2.7,1.6v.5l-5.4,5.3c-1.6,1.6-3.2,3.7-4.8,5.4-1.6,2.1-3.2,4.3-4.3,5.9l-2.7,4.3c-1.6,2.7-3.2,5.9-4.3,8.6-1.6,3.2-2.7,6.4-3.7,9.6-3.2,10.2-4.8,21.4-4.8,32.6v285.5l-.5,7.5v2.1c-3.2,43.3-36.9,62.5-69,62.5s-71.6-21.9-71.6-70.6v-296.2l.5-5.9c7-61,58.8-106.9,121.4-106.9s35.8,4.3,52.9,12.3l34.2,16.6-2.1.5ZM1070.7,1186.3v.5c-3.7,43.3-36.9,63.1-69.5,63.1-71.6,0-86.5-72.2-86.5-72.2v-65.8l156,73.3v1.1Z"/>
  </g>
</svg>