<?xml version="1.0" encoding="UTF-8"?>
<svg id="Layer_1" xmlns="http://www.w3.org/2000/svg" version="1.1" viewBox="0 0 2000 2000">
  <!-- Generator: Adobe Illustrator 30.3.0, SVG Export Plug-In . SVG Version: 2.1.3 Build 182)  -->
  <defs>
    <style>
      .st0 {
        fill: #fff;
      }
    </style>
  </defs>
  <path class="st0" d="M1519.9,1134.8v-325.1c0-3.3-.8-5.8-.8-8.3-.8-7.5-1.7-14.1-3.3-20.7-.8-5-2.5-9.1-3.3-13.2-.8-1.7-1.7-4.1-2.5-5.8-.8-2.5-2.5-4.9-3.3-6.6-.8-1.7-1.7-3.3-2.5-5-.8-1.7-1.7-3.3-3.3-5.8-.8-1.7-2.5-4.1-4.1-5.8-.8-1.7-1.7-2.5-2.5-4.1-.8-.8-2.5-2.5-3.3-4.1l-.8-.8c-.8-.8-2.5-2.5-3.3-4.1-1.7-.8-3.3-2.5-4.1-4.1q-.8,0-1.7-.8l-.8-.8c-.8-.8-1.7-1.7-2.5-1.7-.8-1.7-2.5-2.5-4.1-4.1-1.7-.8-3.3-1.7-4.1-3.3h-.8c-1.7-.8-3.3-2.5-5-3.3-1.7-.8-3.3-1.7-5-2.5-1.7-1.7-3.3-2.5-5-3.3-1.7-.8-3.3-1.7-4.9-2.5-1.7-.8-4.1-1.7-5.8-1.7-1.7-.8-3.3-1.7-5-2.5l-138.1-66.2c-29-14.1-60.4-20.7-90.2-20.7-101.7,0-196,74.4-207.6,183.6-.8,3.3-.8,6.6-1.7,9.9v19c0-3.3,0-6.6-.8-9.1v-5c-3.3-59.6-38.9-96.8-81.9-111.7l-138.1-65.4c-29-14.1-60.4-20.7-90.2-20.7-101.8,0-195.2,73.6-207.7,182.8,0,3.3-.8,6.6-.8,9.9s0,4.9-.8,8.3v448.4l-259.7-123.3c0,52.1,29.8,100.1,77.8,122.4l245.7,117.5c5,2.5,9.1,4.9,14.1,6.6,17.4,6.6,35.6,9.9,53.8,9.9,31.4,0,62-9.9,86-29.8,22.3-19,38-47.2,42.2-84.4v-57.9l313.5,148.9c-1.7-.8-2.5-3.3-4.1-4.1,24,18.2,53.8,27.3,82.7,27.3,62,0,122.4-38.9,127.4-118.3v-.8c.8-1.7.8-3.3.8-5v-49.6l306.9,145.6.8.8c23.2,19,53.8,28.1,83.6,28.1,62,0,123.3-39.7,128.2-119.1v-14.1l-259.8-124.1ZM719.2,817.2v458.3c-3.3,28.9-14.9,53.8-34.7,70.3-19,16.5-44.7,24.8-72.8,24.8s-31.4-2.5-45.5-8.3c-4.1-1.7-8.3-3.3-12.4-5.8-33.9-19-53-52.1-53-95.1v-450.8l.8-7.5.8-9.1c9.9-94.3,91-164.6,187-164.6s55.4,5.8,81.9,18.2l53.8,25.6c-57.9,17.4-105.9,66.2-105.9,144ZM1341.2,674.1l-5.8,2.5-4.9,1.7-.8.8-4.9,1.7-4.1,1.7v.8l-5,2.5c-3.3,1.7-7.4,3.3-10.7,5.8l-5.8,4.1-3.3,2.5-5.8,4.9-4.1,2.5v.8l-8.3,8.3c-2.5,2.5-5,5.8-7.5,8.3-2.5,3.3-4.9,6.6-6.6,9.1l-4.1,6.6c-2.5,4.1-5,9.1-6.6,13.2-2.5,5-4.1,9.9-5.8,14.9-4.9,15.7-7.4,33.1-7.4,50.5v441.7l-.8,11.6v3.3c-5,67-57.1,96.8-106.7,96.8s-110.9-33.9-110.9-109.2v-458.3l.8-9.1c10.8-94.3,91-165.4,187.8-165.4s55.4,6.6,81.9,19l53,25.6-3.3.8ZM1759,1273v.8c-5.8,67-57.1,97.6-107.5,97.6-110.9,0-133.8-111.7-133.8-111.7v-101.7l241.3,113.4v1.6Z"/>
  <path class="st0" d="M1519.9,1134.8v-325.1c0-3.3-.8-5.8-.8-8.3-.8-7.5-1.7-14.1-3.3-20.7-.8-5-2.5-9.1-3.3-13.2-.8-1.7-1.7-4.1-2.5-5.8-.8-2.5-2.5-4.9-3.3-6.6-.8-1.7-1.7-3.3-2.5-5-.8-1.7-1.7-3.3-3.3-5.8-.8-1.7-2.5-4.1-4.1-5.8-.8-1.7-1.7-2.5-2.5-4.1-.8-.8-2.5-2.5-3.3-4.1l-.8-.8c-.8-.8-2.5-2.5-3.3-4.1-1.7-.8-3.3-2.5-4.1-4.1q-.8,0-1.7-.8l-.8-.8c-.8-.8-1.7-1.7-2.5-1.7-.8-1.7-2.5-2.5-4.1-4.1-1.7-.8-3.3-1.7-4.1-3.3h-.8c-1.7-.8-3.3-2.5-5-3.3-1.7-.8-3.3-1.7-5-2.5-1.7-1.7-3.3-2.5-5-3.3-1.7-.8-3.3-1.7-4.9-2.5-1.7-.8-4.1-1.7-5.8-1.7-1.7-.8-3.3-1.7-5-2.5l-138.1-66.2c-29-14.1-60.4-20.7-90.2-20.7-101.7,0-196,74.4-207.6,183.6-.8,3.3-.8,6.6-1.7,9.9v19c0-3.3,0-6.6-.8-9.1v-5c-3.3-59.6-38.9-96.8-81.9-111.7l-138.1-65.4c-29-14.1-60.4-20.7-90.2-20.7-101.8,0-195.2,73.6-207.7,182.8,0,3.3-.8,6.6-.8,9.9s0,4.9-.8,8.3v448.4l-259.7-123.3c0,52.1,29.8,100.1,77.8,122.4l245.7,117.5c5,2.5,9.1,4.9,14.1,6.6,17.4,6.6,35.6,9.9,53.8,9.9,31.4,0,62-9.9,86-29.8,22.3-19,38-47.2,42.2-84.4v-57.9l313.5,148.9c-1.7-.8-2.5-3.3-4.1-4.1,24,18.2,53.8,27.3,82.7,27.3,62,0,122.4-38.9,127.4-118.3v-.8c.8-1.7.8-3.3.8-5v-49.6l306.9,145.6.8.8c23.2,19,53.8,28.1,83.6,28.1,62,0,123.3-39.7,128.2-119.1v-14.1l-259.8-124.1ZM719.2,817.2v458.3c-3.3,28.9-14.9,53.8-34.7,70.3-19,16.5-44.7,24.8-72.8,24.8s-31.4-2.5-45.5-8.3c-4.1-1.7-8.3-3.3-12.4-5.8-33.9-19-53-52.1-53-95.1v-450.8l.8-7.5.8-9.1c9.9-94.3,91-164.6,187-164.6s55.4,5.8,81.9,18.2l53.8,25.6c-57.9,17.4-105.9,66.2-105.9,144ZM1341.2,674.1l-5.8,2.5-4.9,1.7-.8.8-4.9,1.7-4.1,1.7v.8l-5,2.5c-3.3,1.7-7.4,3.3-10.7,5.8l-5.8,4.1-3.3,2.5-5.8,4.9-4.1,2.5v.8l-8.3,8.3c-2.5,2.5-5,5.8-7.5,8.3-2.5,3.3-4.9,6.6-6.6,9.1l-4.1,6.6c-2.5,4.1-5,9.1-6.6,13.2-2.5,5-4.1,9.9-5.8,14.9-4.9,15.7-7.4,33.1-7.4,50.5v441.7l-.8,11.6v3.3c-5,67-57.1,96.8-106.7,96.8s-110.9-33.9-110.9-109.2v-458.3l.8-9.1c10.8-94.3,91-165.4,187.8-165.4s55.4,6.6,81.9,19l53,25.6-3.3.8ZM1759,1273v.8c-5.8,67-57.1,97.6-107.5,97.6-110.9,0-133.8-111.7-133.8-111.7v-101.7l241.3,113.4v1.6Z"/>
</svg>